<mxfile host="app.diagrams.net" modified="2024-04-15T17:18:11.998Z" agent="Mozilla/5.0 (Windows NT 10.0; Win64; x64; rv:124.0) Gecko/20100101 Firefox/124.0" etag="kpBjI8L-CdQX8Y8iu-43" version="24.2.5" type="device">
  <diagram name="Page-1" id="2iButD6TqXNbt69odHKC">
    <mxGraphModel dx="1149" dy="518" grid="1" gridSize="1" guides="1" tooltips="1" connect="1" arrows="1" fold="1" page="1" pageScale="1" pageWidth="850" pageHeight="1100" math="0" shadow="0">
      <root>
        <mxCell id="0" />
        <mxCell id="1" parent="0" />
        <mxCell id="TPw53EYrXpB44-zdfeO7-15" value="RD2" style="rounded=0;whiteSpace=wrap;html=1;" parent="1" vertex="1">
          <mxGeometry x="790" y="110" width="140" height="30" as="geometry" />
        </mxCell>
        <mxCell id="TPw53EYrXpB44-zdfeO7-14" value="RD1" style="rounded=0;whiteSpace=wrap;html=1;" parent="1" vertex="1">
          <mxGeometry x="640" y="110" width="140" height="30" as="geometry" />
        </mxCell>
        <mxCell id="TPw53EYrXpB44-zdfeO7-2" value="CONTROL UNIT" style="rounded=0;whiteSpace=wrap;html=1;" parent="1" vertex="1">
          <mxGeometry x="505" y="524" width="150" height="90" as="geometry" />
        </mxCell>
        <mxCell id="FBOwVQXou2Vzx7ArevX7-85" style="edgeStyle=orthogonalEdgeStyle;rounded=0;orthogonalLoop=1;jettySize=auto;html=1;exitX=0.952;exitY=-0.015;exitDx=0;exitDy=0;exitPerimeter=0;entryX=0;entryY=0.551;entryDx=0;entryDy=0;entryPerimeter=0;" edge="1" parent="1" source="TPw53EYrXpB44-zdfeO7-3" target="TPw53EYrXpB44-zdfeO7-50">
          <mxGeometry relative="1" as="geometry">
            <mxPoint x="479" y="454" as="targetPoint" />
            <Array as="points">
              <mxPoint x="233" y="537" />
              <mxPoint x="460" y="537" />
              <mxPoint x="460" y="454" />
            </Array>
          </mxGeometry>
        </mxCell>
        <mxCell id="TPw53EYrXpB44-zdfeO7-3" value="A" style="rounded=0;whiteSpace=wrap;html=1;" parent="1" vertex="1">
          <mxGeometry x="100" y="557" width="140" height="30" as="geometry" />
        </mxCell>
        <mxCell id="FBOwVQXou2Vzx7ArevX7-84" style="edgeStyle=orthogonalEdgeStyle;rounded=0;orthogonalLoop=1;jettySize=auto;html=1;exitX=0.945;exitY=-0.017;exitDx=0;exitDy=0;entryX=0;entryY=0.75;entryDx=0;entryDy=0;exitPerimeter=0;" edge="1" parent="1" source="TPw53EYrXpB44-zdfeO7-4" target="TPw53EYrXpB44-zdfeO7-50">
          <mxGeometry relative="1" as="geometry">
            <Array as="points">
              <mxPoint x="383" y="544" />
              <mxPoint x="467" y="544" />
              <mxPoint x="467" y="470" />
            </Array>
          </mxGeometry>
        </mxCell>
        <mxCell id="TPw53EYrXpB44-zdfeO7-4" value="B" style="rounded=0;whiteSpace=wrap;html=1;" parent="1" vertex="1">
          <mxGeometry x="251" y="557" width="140" height="30" as="geometry" />
        </mxCell>
        <mxCell id="TPw53EYrXpB44-zdfeO7-24" style="edgeStyle=orthogonalEdgeStyle;rounded=0;orthogonalLoop=1;jettySize=auto;html=1;exitX=0.5;exitY=1;exitDx=0;exitDy=0;entryX=0.25;entryY=1;entryDx=0;entryDy=0;" parent="1" source="TPw53EYrXpB44-zdfeO7-5" target="TPw53EYrXpB44-zdfeO7-23" edge="1">
          <mxGeometry relative="1" as="geometry" />
        </mxCell>
        <mxCell id="TPw53EYrXpB44-zdfeO7-5" value="RSUM" style="rounded=0;whiteSpace=wrap;html=1;" parent="1" vertex="1">
          <mxGeometry x="190" y="110" width="140" height="30" as="geometry" />
        </mxCell>
        <mxCell id="TPw53EYrXpB44-zdfeO7-6" value="RSUB" style="rounded=0;whiteSpace=wrap;html=1;" parent="1" vertex="1">
          <mxGeometry x="490" y="66" width="140" height="30" as="geometry" />
        </mxCell>
        <mxCell id="TPw53EYrXpB44-zdfeO7-7" value="RSHR" style="rounded=0;whiteSpace=wrap;html=1;" parent="1" vertex="1">
          <mxGeometry x="340" y="66" width="140" height="30" as="geometry" />
        </mxCell>
        <mxCell id="TPw53EYrXpB44-zdfeO7-8" value="RSHL" style="rounded=0;whiteSpace=wrap;html=1;" parent="1" vertex="1">
          <mxGeometry x="40" y="66" width="140" height="30" as="geometry" />
        </mxCell>
        <mxCell id="TPw53EYrXpB44-zdfeO7-26" style="edgeStyle=orthogonalEdgeStyle;rounded=0;orthogonalLoop=1;jettySize=auto;html=1;exitX=0.5;exitY=1;exitDx=0;exitDy=0;entryX=0.75;entryY=1;entryDx=0;entryDy=0;" parent="1" source="TPw53EYrXpB44-zdfeO7-9" target="TPw53EYrXpB44-zdfeO7-23" edge="1">
          <mxGeometry relative="1" as="geometry">
            <Array as="points">
              <mxPoint x="870" y="180" />
              <mxPoint x="640" y="180" />
              <mxPoint x="640" y="320" />
            </Array>
          </mxGeometry>
        </mxCell>
        <mxCell id="TPw53EYrXpB44-zdfeO7-9" value="RAND" style="rounded=0;whiteSpace=wrap;html=1;" parent="1" vertex="1">
          <mxGeometry x="790" y="66" width="140" height="30" as="geometry" />
        </mxCell>
        <mxCell id="TPw53EYrXpB44-zdfeO7-25" style="edgeStyle=orthogonalEdgeStyle;rounded=0;orthogonalLoop=1;jettySize=auto;html=1;exitX=0.75;exitY=1;exitDx=0;exitDy=0;entryX=0.5;entryY=1;entryDx=0;entryDy=0;" parent="1" source="TPw53EYrXpB44-zdfeO7-10" target="TPw53EYrXpB44-zdfeO7-23" edge="1">
          <mxGeometry relative="1" as="geometry">
            <Array as="points">
              <mxPoint x="745" y="165" />
              <mxPoint x="630" y="165" />
              <mxPoint x="630" y="290" />
            </Array>
          </mxGeometry>
        </mxCell>
        <mxCell id="TPw53EYrXpB44-zdfeO7-10" value="ROR" style="rounded=0;whiteSpace=wrap;html=1;" parent="1" vertex="1">
          <mxGeometry x="640" y="66" width="140" height="30" as="geometry" />
        </mxCell>
        <mxCell id="TPw53EYrXpB44-zdfeO7-11" value="RNEG" style="rounded=0;whiteSpace=wrap;html=1;" parent="1" vertex="1">
          <mxGeometry x="190" y="66" width="140" height="30" as="geometry" />
        </mxCell>
        <mxCell id="TPw53EYrXpB44-zdfeO7-12" value="RM1" style="rounded=0;whiteSpace=wrap;html=1;" parent="1" vertex="1">
          <mxGeometry x="340" y="110" width="140" height="30" as="geometry" />
        </mxCell>
        <mxCell id="TPw53EYrXpB44-zdfeO7-13" value="RM2" style="rounded=0;whiteSpace=wrap;html=1;" parent="1" vertex="1">
          <mxGeometry x="490" y="110" width="140" height="30" as="geometry" />
        </mxCell>
        <mxCell id="TPw53EYrXpB44-zdfeO7-19" style="edgeStyle=orthogonalEdgeStyle;rounded=0;orthogonalLoop=1;jettySize=auto;html=1;exitX=0.153;exitY=0.004;exitDx=0;exitDy=0;exitPerimeter=0;" parent="1" source="TPw53EYrXpB44-zdfeO7-16" edge="1">
          <mxGeometry relative="1" as="geometry">
            <Array as="points">
              <mxPoint x="170" y="630" />
            </Array>
            <mxPoint x="170" y="587" as="targetPoint" />
          </mxGeometry>
        </mxCell>
        <mxCell id="TPw53EYrXpB44-zdfeO7-20" style="edgeStyle=orthogonalEdgeStyle;rounded=0;orthogonalLoop=1;jettySize=auto;html=1;exitX=0.363;exitY=-0.005;exitDx=0;exitDy=0;exitPerimeter=0;entryX=0.5;entryY=1;entryDx=0;entryDy=0;" parent="1" source="TPw53EYrXpB44-zdfeO7-16" target="TPw53EYrXpB44-zdfeO7-4" edge="1">
          <mxGeometry relative="1" as="geometry">
            <mxPoint x="320" y="620" as="sourcePoint" />
            <Array as="points">
              <mxPoint x="321" y="630" />
            </Array>
            <mxPoint x="321" y="593" as="targetPoint" />
          </mxGeometry>
        </mxCell>
        <mxCell id="TPw53EYrXpB44-zdfeO7-16" value="IN BUS" style="shape=step;perimeter=stepPerimeter;whiteSpace=wrap;html=1;fixedSize=1;" parent="1" vertex="1">
          <mxGeometry x="31" y="630" width="868" height="30" as="geometry" />
        </mxCell>
        <mxCell id="TPw53EYrXpB44-zdfeO7-17" value="OUT BUS" style="shape=step;perimeter=stepPerimeter;whiteSpace=wrap;html=1;fixedSize=1;direction=west;" parent="1" vertex="1">
          <mxGeometry x="32" y="680" width="866" height="30" as="geometry" />
        </mxCell>
        <mxCell id="TPw53EYrXpB44-zdfeO7-23" value="&lt;div&gt;ONE&lt;/div&gt;&lt;div&gt;&amp;nbsp;HOT&lt;/div&gt;&lt;div&gt;MUX&lt;br&gt;&lt;/div&gt;" style="shape=trapezoid;perimeter=trapezoidPerimeter;whiteSpace=wrap;html=1;fixedSize=1;direction=south;" parent="1" vertex="1">
          <mxGeometry x="850" y="230" width="60" height="120" as="geometry" />
        </mxCell>
        <mxCell id="TPw53EYrXpB44-zdfeO7-29" style="edgeStyle=orthogonalEdgeStyle;rounded=0;orthogonalLoop=1;jettySize=auto;html=1;exitX=0.75;exitY=1;exitDx=0;exitDy=0;entryX=0.147;entryY=0.991;entryDx=0;entryDy=0;entryPerimeter=0;" parent="1" source="TPw53EYrXpB44-zdfeO7-7" target="TPw53EYrXpB44-zdfeO7-23" edge="1">
          <mxGeometry relative="1" as="geometry" />
        </mxCell>
        <mxCell id="TPw53EYrXpB44-zdfeO7-30" style="edgeStyle=orthogonalEdgeStyle;rounded=0;orthogonalLoop=1;jettySize=auto;html=1;exitX=0.75;exitY=1;exitDx=0;exitDy=0;entryX=0.416;entryY=1.017;entryDx=0;entryDy=0;entryPerimeter=0;" parent="1" source="TPw53EYrXpB44-zdfeO7-6" target="TPw53EYrXpB44-zdfeO7-23" edge="1">
          <mxGeometry relative="1" as="geometry" />
        </mxCell>
        <mxCell id="TPw53EYrXpB44-zdfeO7-32" style="edgeStyle=orthogonalEdgeStyle;rounded=0;orthogonalLoop=1;jettySize=auto;html=1;exitX=0.5;exitY=1;exitDx=0;exitDy=0;entryX=0.672;entryY=1.017;entryDx=0;entryDy=0;entryPerimeter=0;" parent="1" source="TPw53EYrXpB44-zdfeO7-8" target="TPw53EYrXpB44-zdfeO7-23" edge="1">
          <mxGeometry relative="1" as="geometry">
            <Array as="points">
              <mxPoint x="110" y="161" />
              <mxPoint x="361" y="161" />
              <mxPoint x="361" y="297" />
              <mxPoint x="793" y="297" />
              <mxPoint x="793" y="311" />
            </Array>
          </mxGeometry>
        </mxCell>
        <mxCell id="TPw53EYrXpB44-zdfeO7-34" style="edgeStyle=orthogonalEdgeStyle;rounded=0;orthogonalLoop=1;jettySize=auto;html=1;exitX=0.75;exitY=1;exitDx=0;exitDy=0;entryX=0.339;entryY=1.017;entryDx=0;entryDy=0;entryPerimeter=0;" parent="1" source="TPw53EYrXpB44-zdfeO7-11" target="TPw53EYrXpB44-zdfeO7-23" edge="1">
          <mxGeometry relative="1" as="geometry" />
        </mxCell>
        <mxCell id="TPw53EYrXpB44-zdfeO7-35" style="edgeStyle=orthogonalEdgeStyle;rounded=0;orthogonalLoop=1;jettySize=auto;html=1;exitX=0.75;exitY=1;exitDx=0;exitDy=0;entryX=0.594;entryY=1.007;entryDx=0;entryDy=0;entryPerimeter=0;" parent="1" source="TPw53EYrXpB44-zdfeO7-15" target="TPw53EYrXpB44-zdfeO7-23" edge="1">
          <mxGeometry relative="1" as="geometry" />
        </mxCell>
        <mxCell id="TPw53EYrXpB44-zdfeO7-36" style="edgeStyle=orthogonalEdgeStyle;rounded=0;orthogonalLoop=1;jettySize=auto;html=1;exitX=0.25;exitY=1;exitDx=0;exitDy=0;entryX=0.856;entryY=1.007;entryDx=0;entryDy=0;entryPerimeter=0;" parent="1" source="TPw53EYrXpB44-zdfeO7-13" target="TPw53EYrXpB44-zdfeO7-23" edge="1">
          <mxGeometry relative="1" as="geometry" />
        </mxCell>
        <mxCell id="TPw53EYrXpB44-zdfeO7-37" style="edgeStyle=orthogonalEdgeStyle;rounded=0;orthogonalLoop=1;jettySize=auto;html=1;exitX=0.25;exitY=1;exitDx=0;exitDy=0;entryX=0.939;entryY=1.007;entryDx=0;entryDy=0;entryPerimeter=0;" parent="1" source="TPw53EYrXpB44-zdfeO7-14" target="TPw53EYrXpB44-zdfeO7-23" edge="1">
          <mxGeometry relative="1" as="geometry" />
        </mxCell>
        <mxCell id="TPw53EYrXpB44-zdfeO7-40" style="edgeStyle=orthogonalEdgeStyle;rounded=0;orthogonalLoop=1;jettySize=auto;html=1;exitX=0.5;exitY=1;exitDx=0;exitDy=0;entryX=0.076;entryY=0.983;entryDx=0;entryDy=0;entryPerimeter=0;" parent="1" source="TPw53EYrXpB44-zdfeO7-12" target="TPw53EYrXpB44-zdfeO7-23" edge="1">
          <mxGeometry relative="1" as="geometry" />
        </mxCell>
        <mxCell id="TPw53EYrXpB44-zdfeO7-41" style="edgeStyle=orthogonalEdgeStyle;rounded=0;orthogonalLoop=1;jettySize=auto;html=1;exitX=0.5;exitY=0;exitDx=0;exitDy=0;" parent="1" source="TPw53EYrXpB44-zdfeO7-23" edge="1">
          <mxGeometry relative="1" as="geometry">
            <mxPoint x="721" y="679" as="targetPoint" />
          </mxGeometry>
        </mxCell>
        <mxCell id="TPw53EYrXpB44-zdfeO7-42" value="" style="endArrow=classic;html=1;rounded=0;" parent="1" edge="1">
          <mxGeometry width="50" height="50" relative="1" as="geometry">
            <mxPoint x="150" y="607" as="sourcePoint" />
            <mxPoint x="170" y="607" as="targetPoint" />
          </mxGeometry>
        </mxCell>
        <mxCell id="FBOwVQXou2Vzx7ArevX7-83" value="rd1" style="edgeLabel;html=1;align=center;verticalAlign=middle;resizable=0;points=[];" vertex="1" connectable="0" parent="TPw53EYrXpB44-zdfeO7-42">
          <mxGeometry x="-0.3556" y="1" relative="1" as="geometry">
            <mxPoint x="-14" as="offset" />
          </mxGeometry>
        </mxCell>
        <mxCell id="TPw53EYrXpB44-zdfeO7-44" value="" style="endArrow=classic;html=1;rounded=0;" parent="1" edge="1">
          <mxGeometry width="50" height="50" relative="1" as="geometry">
            <mxPoint x="301" y="606.55" as="sourcePoint" />
            <mxPoint x="321" y="606.55" as="targetPoint" />
          </mxGeometry>
        </mxCell>
        <mxCell id="FBOwVQXou2Vzx7ArevX7-82" value="rd2" style="edgeLabel;html=1;align=center;verticalAlign=middle;resizable=0;points=[];" vertex="1" connectable="0" parent="TPw53EYrXpB44-zdfeO7-44">
          <mxGeometry x="-0.6426" y="1" relative="1" as="geometry">
            <mxPoint x="-12" y="-1" as="offset" />
          </mxGeometry>
        </mxCell>
        <mxCell id="TPw53EYrXpB44-zdfeO7-50" value="MULT" style="whiteSpace=wrap;html=1;aspect=fixed;" parent="1" vertex="1">
          <mxGeometry x="480" y="410" width="80" height="80" as="geometry" />
        </mxCell>
        <mxCell id="TPw53EYrXpB44-zdfeO7-62" style="edgeStyle=orthogonalEdgeStyle;rounded=0;orthogonalLoop=1;jettySize=auto;html=1;exitX=0.634;exitY=-0.005;exitDx=0;exitDy=0;entryX=0.5;entryY=1;entryDx=0;entryDy=0;exitPerimeter=0;" parent="1" source="TPw53EYrXpB44-zdfeO7-59" target="TPw53EYrXpB44-zdfeO7-14" edge="1">
          <mxGeometry relative="1" as="geometry">
            <Array as="points">
              <mxPoint x="641" y="370" />
              <mxPoint x="710" y="370" />
            </Array>
          </mxGeometry>
        </mxCell>
        <mxCell id="TPw53EYrXpB44-zdfeO7-59" value="DIV" style="whiteSpace=wrap;html=1;aspect=fixed;" parent="1" vertex="1">
          <mxGeometry x="590" y="410" width="80" height="80" as="geometry" />
        </mxCell>
        <mxCell id="TPw53EYrXpB44-zdfeO7-63" style="edgeStyle=orthogonalEdgeStyle;rounded=0;orthogonalLoop=1;jettySize=auto;html=1;exitX=0.806;exitY=0.003;exitDx=0;exitDy=0;entryX=0.856;entryY=0.98;entryDx=0;entryDy=0;entryPerimeter=0;exitPerimeter=0;" parent="1" source="TPw53EYrXpB44-zdfeO7-59" target="TPw53EYrXpB44-zdfeO7-15" edge="1">
          <mxGeometry relative="1" as="geometry">
            <Array as="points">
              <mxPoint x="655" y="399" />
              <mxPoint x="760" y="399" />
              <mxPoint x="760" y="200" />
              <mxPoint x="910" y="200" />
            </Array>
          </mxGeometry>
        </mxCell>
        <mxCell id="FBOwVQXou2Vzx7ArevX7-2" value="ADDER" style="whiteSpace=wrap;html=1;aspect=fixed;" vertex="1" parent="1">
          <mxGeometry x="40" y="410" width="80" height="80" as="geometry" />
        </mxCell>
        <mxCell id="FBOwVQXou2Vzx7ArevX7-120" style="edgeStyle=orthogonalEdgeStyle;rounded=0;orthogonalLoop=1;jettySize=auto;html=1;exitX=1;exitY=0.5;exitDx=0;exitDy=0;entryX=0.135;entryY=1.002;entryDx=0;entryDy=0;entryPerimeter=0;" edge="1" parent="1" source="FBOwVQXou2Vzx7ArevX7-3" target="TPw53EYrXpB44-zdfeO7-6">
          <mxGeometry relative="1" as="geometry">
            <mxPoint x="509" y="100" as="targetPoint" />
            <Array as="points">
              <mxPoint x="245" y="450" />
              <mxPoint x="245" y="386" />
              <mxPoint x="509" y="386" />
            </Array>
          </mxGeometry>
        </mxCell>
        <mxCell id="FBOwVQXou2Vzx7ArevX7-3" value="SUB" style="whiteSpace=wrap;html=1;aspect=fixed;" vertex="1" parent="1">
          <mxGeometry x="150" y="410" width="80" height="80" as="geometry" />
        </mxCell>
        <mxCell id="FBOwVQXou2Vzx7ArevX7-124" style="edgeStyle=orthogonalEdgeStyle;rounded=0;orthogonalLoop=1;jettySize=auto;html=1;exitX=0.5;exitY=0;exitDx=0;exitDy=0;entryX=0.848;entryY=1.006;entryDx=0;entryDy=0;entryPerimeter=0;" edge="1" parent="1" source="FBOwVQXou2Vzx7ArevX7-4" target="TPw53EYrXpB44-zdfeO7-8">
          <mxGeometry relative="1" as="geometry">
            <Array as="points">
              <mxPoint x="284" y="410" />
              <mxPoint x="284" y="238" />
              <mxPoint x="159" y="238" />
              <mxPoint x="159" y="96" />
            </Array>
          </mxGeometry>
        </mxCell>
        <mxCell id="FBOwVQXou2Vzx7ArevX7-4" value="&lt;div&gt;LEFT&amp;nbsp;&lt;/div&gt;&lt;div&gt;SHIFT&lt;/div&gt;" style="whiteSpace=wrap;html=1;aspect=fixed;" vertex="1" parent="1">
          <mxGeometry x="265" y="410" width="80" height="80" as="geometry" />
        </mxCell>
        <mxCell id="FBOwVQXou2Vzx7ArevX7-122" style="edgeStyle=orthogonalEdgeStyle;rounded=0;orthogonalLoop=1;jettySize=auto;html=1;exitX=0.5;exitY=0;exitDx=0;exitDy=0;entryX=0.25;entryY=1;entryDx=0;entryDy=0;" edge="1" parent="1" source="FBOwVQXou2Vzx7ArevX7-5" target="TPw53EYrXpB44-zdfeO7-7">
          <mxGeometry relative="1" as="geometry">
            <Array as="points">
              <mxPoint x="410" y="250" />
              <mxPoint x="375" y="250" />
            </Array>
          </mxGeometry>
        </mxCell>
        <mxCell id="FBOwVQXou2Vzx7ArevX7-5" value="&lt;div&gt;RIGHT &lt;br&gt;&lt;/div&gt;&lt;div&gt;SHIFT&lt;/div&gt;" style="whiteSpace=wrap;html=1;aspect=fixed;" vertex="1" parent="1">
          <mxGeometry x="370" y="410" width="80" height="80" as="geometry" />
        </mxCell>
        <mxCell id="FBOwVQXou2Vzx7ArevX7-115" style="edgeStyle=orthogonalEdgeStyle;rounded=0;orthogonalLoop=1;jettySize=auto;html=1;exitX=1;exitY=0.5;exitDx=0;exitDy=0;entryX=0.25;entryY=1;entryDx=0;entryDy=0;" edge="1" parent="1" source="FBOwVQXou2Vzx7ArevX7-6" target="TPw53EYrXpB44-zdfeO7-9">
          <mxGeometry relative="1" as="geometry">
            <Array as="points">
              <mxPoint x="172" y="311" />
              <mxPoint x="172" y="188" />
              <mxPoint x="825" y="188" />
            </Array>
          </mxGeometry>
        </mxCell>
        <mxCell id="FBOwVQXou2Vzx7ArevX7-6" value="AND&lt;br&gt;&lt;div&gt;GATE&lt;/div&gt;" style="whiteSpace=wrap;html=1;aspect=fixed;" vertex="1" parent="1">
          <mxGeometry x="62" y="271" width="80" height="80" as="geometry" />
        </mxCell>
        <mxCell id="FBOwVQXou2Vzx7ArevX7-116" style="edgeStyle=orthogonalEdgeStyle;rounded=0;orthogonalLoop=1;jettySize=auto;html=1;exitX=1;exitY=0.5;exitDx=0;exitDy=0;entryX=0.141;entryY=0.994;entryDx=0;entryDy=0;entryPerimeter=0;" edge="1" parent="1" source="FBOwVQXou2Vzx7ArevX7-7" target="TPw53EYrXpB44-zdfeO7-10">
          <mxGeometry relative="1" as="geometry">
            <Array as="points">
              <mxPoint x="342" y="314" />
              <mxPoint x="342" y="203" />
              <mxPoint x="660" y="203" />
            </Array>
          </mxGeometry>
        </mxCell>
        <mxCell id="FBOwVQXou2Vzx7ArevX7-7" value="OR&lt;br&gt;&lt;div&gt;GATE&lt;/div&gt;" style="whiteSpace=wrap;html=1;aspect=fixed;" vertex="1" parent="1">
          <mxGeometry x="193" y="274" width="80" height="80" as="geometry" />
        </mxCell>
        <mxCell id="FBOwVQXou2Vzx7ArevX7-114" style="edgeStyle=orthogonalEdgeStyle;rounded=0;orthogonalLoop=1;jettySize=auto;html=1;exitX=1;exitY=0.5;exitDx=0;exitDy=0;entryX=0.25;entryY=1;entryDx=0;entryDy=0;" edge="1" parent="1" source="FBOwVQXou2Vzx7ArevX7-8" target="TPw53EYrXpB44-zdfeO7-11">
          <mxGeometry relative="1" as="geometry" />
        </mxCell>
        <mxCell id="FBOwVQXou2Vzx7ArevX7-8" value="INVERTER&lt;br&gt;GATE" style="whiteSpace=wrap;html=1;aspect=fixed;" vertex="1" parent="1">
          <mxGeometry x="62" y="174" width="80" height="80" as="geometry" />
        </mxCell>
        <mxCell id="FBOwVQXou2Vzx7ArevX7-9" value="" style="endArrow=classic;html=1;rounded=0;entryX=-0.002;entryY=0.26;entryDx=0;entryDy=0;entryPerimeter=0;" edge="1" parent="1" target="TPw53EYrXpB44-zdfeO7-2">
          <mxGeometry width="50" height="50" relative="1" as="geometry">
            <mxPoint x="478" y="547" as="sourcePoint" />
            <mxPoint x="595" y="574" as="targetPoint" />
          </mxGeometry>
        </mxCell>
        <mxCell id="FBOwVQXou2Vzx7ArevX7-10" value="clk" style="edgeLabel;html=1;align=center;verticalAlign=middle;resizable=0;points=[];" vertex="1" connectable="0" parent="FBOwVQXou2Vzx7ArevX7-9">
          <mxGeometry x="-0.527" relative="1" as="geometry">
            <mxPoint x="-4" y="-1" as="offset" />
          </mxGeometry>
        </mxCell>
        <mxCell id="FBOwVQXou2Vzx7ArevX7-11" value="" style="endArrow=classic;html=1;rounded=0;entryX=-0.002;entryY=0.26;entryDx=0;entryDy=0;entryPerimeter=0;" edge="1" parent="1">
          <mxGeometry width="50" height="50" relative="1" as="geometry">
            <mxPoint x="478" y="560" as="sourcePoint" />
            <mxPoint x="505" y="560" as="targetPoint" />
          </mxGeometry>
        </mxCell>
        <mxCell id="FBOwVQXou2Vzx7ArevX7-12" value="rst_b" style="edgeLabel;html=1;align=center;verticalAlign=middle;resizable=0;points=[];" vertex="1" connectable="0" parent="FBOwVQXou2Vzx7ArevX7-11">
          <mxGeometry x="-0.527" relative="1" as="geometry">
            <mxPoint x="-8" y="-1" as="offset" />
          </mxGeometry>
        </mxCell>
        <mxCell id="FBOwVQXou2Vzx7ArevX7-13" value="" style="endArrow=classic;html=1;rounded=0;entryX=-0.002;entryY=0.26;entryDx=0;entryDy=0;entryPerimeter=0;" edge="1" parent="1">
          <mxGeometry width="50" height="50" relative="1" as="geometry">
            <mxPoint x="478" y="595" as="sourcePoint" />
            <mxPoint x="505" y="595" as="targetPoint" />
          </mxGeometry>
        </mxCell>
        <mxCell id="FBOwVQXou2Vzx7ArevX7-14" value="opcode" style="edgeLabel;html=1;align=center;verticalAlign=middle;resizable=0;points=[];" vertex="1" connectable="0" parent="FBOwVQXou2Vzx7ArevX7-13">
          <mxGeometry x="-0.527" relative="1" as="geometry">
            <mxPoint x="-13" y="-1" as="offset" />
          </mxGeometry>
        </mxCell>
        <mxCell id="FBOwVQXou2Vzx7ArevX7-15" value="" style="endArrow=classic;html=1;rounded=0;exitX=1;exitY=0.25;exitDx=0;exitDy=0;entryX=0.971;entryY=0.813;entryDx=0;entryDy=0;entryPerimeter=0;" edge="1" parent="1" source="TPw53EYrXpB44-zdfeO7-59">
          <mxGeometry width="50" height="50" relative="1" as="geometry">
            <mxPoint x="665" y="451" as="sourcePoint" />
            <mxPoint x="856.22" y="347.52" as="targetPoint" />
            <Array as="points">
              <mxPoint x="856" y="431" />
            </Array>
          </mxGeometry>
        </mxCell>
        <mxCell id="FBOwVQXou2Vzx7ArevX7-18" value="fin" style="text;html=1;align=center;verticalAlign=middle;whiteSpace=wrap;rounded=0;" vertex="1" parent="1">
          <mxGeometry x="653" y="421.5" width="17" height="15" as="geometry" />
        </mxCell>
        <mxCell id="FBOwVQXou2Vzx7ArevX7-19" value="" style="endArrow=classic;html=1;rounded=0;entryX=0;entryY=0.25;entryDx=0;entryDy=0;" edge="1" parent="1" target="TPw53EYrXpB44-zdfeO7-50">
          <mxGeometry width="50" height="50" relative="1" as="geometry">
            <mxPoint x="461" y="430" as="sourcePoint" />
            <mxPoint x="549" y="398" as="targetPoint" />
          </mxGeometry>
        </mxCell>
        <mxCell id="FBOwVQXou2Vzx7ArevX7-20" value="cmul" style="edgeLabel;html=1;align=center;verticalAlign=middle;resizable=0;points=[];" vertex="1" connectable="0" parent="FBOwVQXou2Vzx7ArevX7-19">
          <mxGeometry x="-0.4879" y="1" relative="1" as="geometry">
            <mxPoint x="-2" y="-10" as="offset" />
          </mxGeometry>
        </mxCell>
        <mxCell id="FBOwVQXou2Vzx7ArevX7-21" value="bgn" style="text;html=1;align=center;verticalAlign=middle;whiteSpace=wrap;rounded=0;" vertex="1" parent="1">
          <mxGeometry x="479" y="419" width="29" height="20" as="geometry" />
        </mxCell>
        <mxCell id="FBOwVQXou2Vzx7ArevX7-22" value="" style="endArrow=classic;html=1;rounded=0;entryX=0;entryY=0.25;entryDx=0;entryDy=0;" edge="1" parent="1">
          <mxGeometry width="50" height="50" relative="1" as="geometry">
            <mxPoint x="572" y="429" as="sourcePoint" />
            <mxPoint x="591" y="429" as="targetPoint" />
          </mxGeometry>
        </mxCell>
        <mxCell id="FBOwVQXou2Vzx7ArevX7-23" value="cdiv" style="edgeLabel;html=1;align=center;verticalAlign=middle;resizable=0;points=[];" vertex="1" connectable="0" parent="FBOwVQXou2Vzx7ArevX7-22">
          <mxGeometry x="-0.4879" y="1" relative="1" as="geometry">
            <mxPoint x="-2" y="-10" as="offset" />
          </mxGeometry>
        </mxCell>
        <mxCell id="FBOwVQXou2Vzx7ArevX7-24" value="bgn" style="text;html=1;align=center;verticalAlign=middle;whiteSpace=wrap;rounded=0;" vertex="1" parent="1">
          <mxGeometry x="590" y="418" width="29" height="20" as="geometry" />
        </mxCell>
        <mxCell id="FBOwVQXou2Vzx7ArevX7-26" value="" style="endArrow=classic;html=1;rounded=0;exitX=1;exitY=0.25;exitDx=0;exitDy=0;entryX=0.989;entryY=0.936;entryDx=0;entryDy=0;entryPerimeter=0;" edge="1" parent="1" source="TPw53EYrXpB44-zdfeO7-50">
          <mxGeometry width="50" height="50" relative="1" as="geometry">
            <mxPoint x="556.102" y="451.95500000000004" as="sourcePoint" />
            <mxPoint x="849.84" y="349.68000000000006" as="targetPoint" />
            <Array as="points">
              <mxPoint x="564" y="430" />
              <mxPoint x="564" y="384" />
              <mxPoint x="850" y="383" />
            </Array>
          </mxGeometry>
        </mxCell>
        <mxCell id="FBOwVQXou2Vzx7ArevX7-27" value="fin" style="text;html=1;align=center;verticalAlign=middle;whiteSpace=wrap;rounded=0;" vertex="1" parent="1">
          <mxGeometry x="545" y="422.5" width="12" height="11" as="geometry" />
        </mxCell>
        <mxCell id="FBOwVQXou2Vzx7ArevX7-30" value="" style="shape=xor;whiteSpace=wrap;html=1;" vertex="1" parent="1">
          <mxGeometry x="801" y="536" width="60" height="80" as="geometry" />
        </mxCell>
        <mxCell id="FBOwVQXou2Vzx7ArevX7-32" value="" style="endArrow=classic;html=1;rounded=0;" edge="1" parent="1">
          <mxGeometry width="50" height="50" relative="1" as="geometry">
            <mxPoint x="778" y="449" as="sourcePoint" />
            <mxPoint x="778" y="430" as="targetPoint" />
          </mxGeometry>
        </mxCell>
        <mxCell id="FBOwVQXou2Vzx7ArevX7-33" value="fmul" style="edgeLabel;html=1;align=center;verticalAlign=middle;resizable=0;points=[];" vertex="1" connectable="0" parent="FBOwVQXou2Vzx7ArevX7-32">
          <mxGeometry x="-0.7696" relative="1" as="geometry">
            <mxPoint y="5" as="offset" />
          </mxGeometry>
        </mxCell>
        <mxCell id="FBOwVQXou2Vzx7ArevX7-34" value="" style="endArrow=classic;html=1;rounded=0;" edge="1" parent="1">
          <mxGeometry width="50" height="50" relative="1" as="geometry">
            <mxPoint x="610" y="368" as="sourcePoint" />
            <mxPoint x="610" y="383" as="targetPoint" />
          </mxGeometry>
        </mxCell>
        <mxCell id="FBOwVQXou2Vzx7ArevX7-35" value="fdiv" style="edgeLabel;html=1;align=center;verticalAlign=middle;resizable=0;points=[];" vertex="1" connectable="0" parent="FBOwVQXou2Vzx7ArevX7-34">
          <mxGeometry x="-0.2193" relative="1" as="geometry">
            <mxPoint y="-11" as="offset" />
          </mxGeometry>
        </mxCell>
        <mxCell id="FBOwVQXou2Vzx7ArevX7-36" value="" style="endArrow=classic;html=1;rounded=0;entryX=1;entryY=0.75;entryDx=0;entryDy=0;" edge="1" parent="1">
          <mxGeometry width="50" height="50" relative="1" as="geometry">
            <mxPoint x="863" y="408" as="sourcePoint" />
            <mxPoint x="863.3636363636365" y="345.5454545454545" as="targetPoint" />
          </mxGeometry>
        </mxCell>
        <mxCell id="FBOwVQXou2Vzx7ArevX7-37" value="csum" style="edgeLabel;html=1;align=center;verticalAlign=middle;resizable=0;points=[];" vertex="1" connectable="0" parent="FBOwVQXou2Vzx7ArevX7-36">
          <mxGeometry x="-0.7337" y="1" relative="1" as="geometry">
            <mxPoint x="8" y="11" as="offset" />
          </mxGeometry>
        </mxCell>
        <mxCell id="FBOwVQXou2Vzx7ArevX7-38" value="" style="endArrow=classic;html=1;rounded=0;entryX=1;entryY=0.75;entryDx=0;entryDy=0;" edge="1" parent="1">
          <mxGeometry width="50" height="50" relative="1" as="geometry">
            <mxPoint x="871" y="402" as="sourcePoint" />
            <mxPoint x="871.3636363636365" y="342.5454545454545" as="targetPoint" />
          </mxGeometry>
        </mxCell>
        <mxCell id="FBOwVQXou2Vzx7ArevX7-39" value="csub" style="edgeLabel;html=1;align=center;verticalAlign=middle;resizable=0;points=[];" vertex="1" connectable="0" parent="FBOwVQXou2Vzx7ArevX7-38">
          <mxGeometry x="-0.7337" y="1" relative="1" as="geometry">
            <mxPoint x="6" y="7" as="offset" />
          </mxGeometry>
        </mxCell>
        <mxCell id="FBOwVQXou2Vzx7ArevX7-40" value="" style="endArrow=classic;html=1;rounded=0;entryX=1;entryY=0.75;entryDx=0;entryDy=0;" edge="1" parent="1">
          <mxGeometry width="50" height="50" relative="1" as="geometry">
            <mxPoint x="878" y="390" as="sourcePoint" />
            <mxPoint x="878.3636363636365" y="340.5454545454545" as="targetPoint" />
          </mxGeometry>
        </mxCell>
        <mxCell id="FBOwVQXou2Vzx7ArevX7-41" value="cshl" style="edgeLabel;html=1;align=center;verticalAlign=middle;resizable=0;points=[];" vertex="1" connectable="0" parent="FBOwVQXou2Vzx7ArevX7-40">
          <mxGeometry x="-0.7337" y="1" relative="1" as="geometry">
            <mxPoint x="5" y="7" as="offset" />
          </mxGeometry>
        </mxCell>
        <mxCell id="FBOwVQXou2Vzx7ArevX7-42" value="" style="endArrow=classic;html=1;rounded=0;entryX=1;entryY=0.75;entryDx=0;entryDy=0;" edge="1" parent="1">
          <mxGeometry width="50" height="50" relative="1" as="geometry">
            <mxPoint x="886" y="378" as="sourcePoint" />
            <mxPoint x="886.3636363636365" y="337.5454545454545" as="targetPoint" />
          </mxGeometry>
        </mxCell>
        <mxCell id="FBOwVQXou2Vzx7ArevX7-43" value="cshr" style="edgeLabel;html=1;align=center;verticalAlign=middle;resizable=0;points=[];" vertex="1" connectable="0" parent="FBOwVQXou2Vzx7ArevX7-42">
          <mxGeometry x="-0.7337" y="1" relative="1" as="geometry">
            <mxPoint x="5" y="6" as="offset" />
          </mxGeometry>
        </mxCell>
        <mxCell id="FBOwVQXou2Vzx7ArevX7-44" value="" style="endArrow=classic;html=1;rounded=0;entryX=1;entryY=0.75;entryDx=0;entryDy=0;" edge="1" parent="1">
          <mxGeometry width="50" height="50" relative="1" as="geometry">
            <mxPoint x="894" y="371" as="sourcePoint" />
            <mxPoint x="894.3636363636365" y="335.5454545454545" as="targetPoint" />
          </mxGeometry>
        </mxCell>
        <mxCell id="FBOwVQXou2Vzx7ArevX7-45" value="cor" style="edgeLabel;html=1;align=center;verticalAlign=middle;resizable=0;points=[];" vertex="1" connectable="0" parent="FBOwVQXou2Vzx7ArevX7-44">
          <mxGeometry x="-0.7337" y="1" relative="1" as="geometry">
            <mxPoint x="2" y="2" as="offset" />
          </mxGeometry>
        </mxCell>
        <mxCell id="FBOwVQXou2Vzx7ArevX7-46" value="" style="endArrow=classic;html=1;rounded=0;entryX=1;entryY=0.75;entryDx=0;entryDy=0;" edge="1" parent="1">
          <mxGeometry width="50" height="50" relative="1" as="geometry">
            <mxPoint x="901" y="359" as="sourcePoint" />
            <mxPoint x="901.3636363636365" y="332.5454545454545" as="targetPoint" />
          </mxGeometry>
        </mxCell>
        <mxCell id="FBOwVQXou2Vzx7ArevX7-47" value="cand" style="edgeLabel;html=1;align=center;verticalAlign=middle;resizable=0;points=[];" vertex="1" connectable="0" parent="FBOwVQXou2Vzx7ArevX7-46">
          <mxGeometry x="-0.7337" y="1" relative="1" as="geometry">
            <mxPoint x="7" y="3" as="offset" />
          </mxGeometry>
        </mxCell>
        <mxCell id="FBOwVQXou2Vzx7ArevX7-48" value="" style="endArrow=classic;html=1;rounded=0;entryX=1;entryY=0.75;entryDx=0;entryDy=0;" edge="1" parent="1">
          <mxGeometry width="50" height="50" relative="1" as="geometry">
            <mxPoint x="909" y="348" as="sourcePoint" />
            <mxPoint x="909.3636363636365" y="330.5454545454545" as="targetPoint" />
          </mxGeometry>
        </mxCell>
        <mxCell id="FBOwVQXou2Vzx7ArevX7-49" value="cneg" style="edgeLabel;html=1;align=center;verticalAlign=middle;resizable=0;points=[];" vertex="1" connectable="0" parent="FBOwVQXou2Vzx7ArevX7-48">
          <mxGeometry x="-0.7337" y="1" relative="1" as="geometry">
            <mxPoint x="8" y="2" as="offset" />
          </mxGeometry>
        </mxCell>
        <mxCell id="FBOwVQXou2Vzx7ArevX7-50" value="" style="endArrow=classic;html=1;rounded=0;entryX=0.098;entryY=0.118;entryDx=0;entryDy=0;entryPerimeter=0;" edge="1" parent="1" target="FBOwVQXou2Vzx7ArevX7-30">
          <mxGeometry width="50" height="50" relative="1" as="geometry">
            <mxPoint x="733" y="431" as="sourcePoint" />
            <mxPoint x="662" y="592" as="targetPoint" />
            <Array as="points">
              <mxPoint x="733" y="546" />
            </Array>
          </mxGeometry>
        </mxCell>
        <mxCell id="FBOwVQXou2Vzx7ArevX7-52" value="" style="ellipse;whiteSpace=wrap;html=1;aspect=fixed;fillColor=#000000;" vertex="1" parent="1">
          <mxGeometry x="732" y="429" width="2" height="2" as="geometry" />
        </mxCell>
        <mxCell id="FBOwVQXou2Vzx7ArevX7-53" value="" style="endArrow=classic;html=1;rounded=0;entryX=0.023;entryY=0.021;entryDx=0;entryDy=0;entryPerimeter=0;" edge="1" parent="1" target="FBOwVQXou2Vzx7ArevX7-30">
          <mxGeometry width="50" height="50" relative="1" as="geometry">
            <mxPoint x="687" y="384" as="sourcePoint" />
            <mxPoint x="881" y="483" as="targetPoint" />
            <Array as="points">
              <mxPoint x="687" y="508" />
              <mxPoint x="704" y="508" />
              <mxPoint x="704" y="538" />
            </Array>
          </mxGeometry>
        </mxCell>
        <mxCell id="FBOwVQXou2Vzx7ArevX7-54" value="" style="ellipse;whiteSpace=wrap;html=1;aspect=fixed;fillColor=#000000;" vertex="1" parent="1">
          <mxGeometry x="686" y="382" width="2" height="2" as="geometry" />
        </mxCell>
        <mxCell id="FBOwVQXou2Vzx7ArevX7-55" value="" style="endArrow=classic;html=1;rounded=0;entryX=0.175;entryY=0.25;entryDx=0;entryDy=0;entryPerimeter=0;" edge="1" parent="1">
          <mxGeometry width="50" height="50" relative="1" as="geometry">
            <mxPoint x="777" y="554" as="sourcePoint" />
            <mxPoint x="811.5" y="554" as="targetPoint" />
          </mxGeometry>
        </mxCell>
        <mxCell id="FBOwVQXou2Vzx7ArevX7-56" value="csum" style="edgeLabel;html=1;align=center;verticalAlign=middle;resizable=0;points=[];" vertex="1" connectable="0" parent="FBOwVQXou2Vzx7ArevX7-55">
          <mxGeometry x="-0.7201" y="-1" relative="1" as="geometry">
            <mxPoint x="-18" y="-2" as="offset" />
          </mxGeometry>
        </mxCell>
        <mxCell id="FBOwVQXou2Vzx7ArevX7-57" value="" style="endArrow=classic;html=1;rounded=0;entryX=0.175;entryY=0.25;entryDx=0;entryDy=0;entryPerimeter=0;" edge="1" parent="1">
          <mxGeometry width="50" height="50" relative="1" as="geometry">
            <mxPoint x="780" y="564" as="sourcePoint" />
            <mxPoint x="814.5" y="564" as="targetPoint" />
          </mxGeometry>
        </mxCell>
        <mxCell id="FBOwVQXou2Vzx7ArevX7-58" value="csub" style="edgeLabel;html=1;align=center;verticalAlign=middle;resizable=0;points=[];" vertex="1" connectable="0" parent="FBOwVQXou2Vzx7ArevX7-57">
          <mxGeometry x="-0.7201" y="-1" relative="1" as="geometry">
            <mxPoint x="-9" y="-1" as="offset" />
          </mxGeometry>
        </mxCell>
        <mxCell id="FBOwVQXou2Vzx7ArevX7-59" value="" style="endArrow=classic;html=1;rounded=0;entryX=0.175;entryY=0.25;entryDx=0;entryDy=0;entryPerimeter=0;" edge="1" parent="1">
          <mxGeometry width="50" height="50" relative="1" as="geometry">
            <mxPoint x="756" y="573" as="sourcePoint" />
            <mxPoint x="815.5" y="573" as="targetPoint" />
          </mxGeometry>
        </mxCell>
        <mxCell id="FBOwVQXou2Vzx7ArevX7-60" value="cshr" style="edgeLabel;html=1;align=center;verticalAlign=middle;resizable=0;points=[];" vertex="1" connectable="0" parent="FBOwVQXou2Vzx7ArevX7-59">
          <mxGeometry x="-0.7201" y="-1" relative="1" as="geometry">
            <mxPoint x="-13" y="-3" as="offset" />
          </mxGeometry>
        </mxCell>
        <mxCell id="FBOwVQXou2Vzx7ArevX7-61" value="" style="endArrow=classic;html=1;rounded=0;exitX=1;exitY=0.5;exitDx=0;exitDy=0;exitPerimeter=0;" edge="1" parent="1" source="FBOwVQXou2Vzx7ArevX7-30">
          <mxGeometry width="50" height="50" relative="1" as="geometry">
            <mxPoint x="840" y="560" as="sourcePoint" />
            <mxPoint x="904" y="576" as="targetPoint" />
          </mxGeometry>
        </mxCell>
        <mxCell id="FBOwVQXou2Vzx7ArevX7-62" value="fin" style="edgeLabel;html=1;align=center;verticalAlign=middle;resizable=0;points=[];" vertex="1" connectable="0" parent="FBOwVQXou2Vzx7ArevX7-61">
          <mxGeometry x="0.6537" y="-3" relative="1" as="geometry">
            <mxPoint x="-10" y="-12" as="offset" />
          </mxGeometry>
        </mxCell>
        <mxCell id="FBOwVQXou2Vzx7ArevX7-63" value="" style="endArrow=classic;html=1;rounded=0;entryX=0.175;entryY=0.25;entryDx=0;entryDy=0;entryPerimeter=0;" edge="1" parent="1">
          <mxGeometry width="50" height="50" relative="1" as="geometry">
            <mxPoint x="782" y="580" as="sourcePoint" />
            <mxPoint x="816.5" y="580" as="targetPoint" />
          </mxGeometry>
        </mxCell>
        <mxCell id="FBOwVQXou2Vzx7ArevX7-64" value="cshl" style="edgeLabel;html=1;align=center;verticalAlign=middle;resizable=0;points=[];" vertex="1" connectable="0" parent="FBOwVQXou2Vzx7ArevX7-63">
          <mxGeometry x="-0.7201" y="-1" relative="1" as="geometry">
            <mxPoint x="-9" y="-1" as="offset" />
          </mxGeometry>
        </mxCell>
        <mxCell id="FBOwVQXou2Vzx7ArevX7-65" value="" style="endArrow=classic;html=1;rounded=0;entryX=0.175;entryY=0.25;entryDx=0;entryDy=0;entryPerimeter=0;" edge="1" parent="1">
          <mxGeometry width="50" height="50" relative="1" as="geometry">
            <mxPoint x="755" y="588" as="sourcePoint" />
            <mxPoint x="814.5" y="588" as="targetPoint" />
          </mxGeometry>
        </mxCell>
        <mxCell id="FBOwVQXou2Vzx7ArevX7-66" value="cand" style="edgeLabel;html=1;align=center;verticalAlign=middle;resizable=0;points=[];" vertex="1" connectable="0" parent="FBOwVQXou2Vzx7ArevX7-65">
          <mxGeometry x="-0.7201" y="-1" relative="1" as="geometry">
            <mxPoint x="-13" y="-3" as="offset" />
          </mxGeometry>
        </mxCell>
        <mxCell id="FBOwVQXou2Vzx7ArevX7-67" value="" style="endArrow=classic;html=1;rounded=0;entryX=0.175;entryY=0.25;entryDx=0;entryDy=0;entryPerimeter=0;" edge="1" parent="1">
          <mxGeometry width="50" height="50" relative="1" as="geometry">
            <mxPoint x="777" y="597" as="sourcePoint" />
            <mxPoint x="811.5" y="597" as="targetPoint" />
          </mxGeometry>
        </mxCell>
        <mxCell id="FBOwVQXou2Vzx7ArevX7-68" value="cor" style="edgeLabel;html=1;align=center;verticalAlign=middle;resizable=0;points=[];" vertex="1" connectable="0" parent="FBOwVQXou2Vzx7ArevX7-67">
          <mxGeometry x="-0.7201" y="-1" relative="1" as="geometry">
            <mxPoint x="-9" y="-1" as="offset" />
          </mxGeometry>
        </mxCell>
        <mxCell id="FBOwVQXou2Vzx7ArevX7-69" value="" style="endArrow=classic;html=1;rounded=0;entryX=0.175;entryY=0.25;entryDx=0;entryDy=0;entryPerimeter=0;" edge="1" parent="1">
          <mxGeometry width="50" height="50" relative="1" as="geometry">
            <mxPoint x="757" y="605" as="sourcePoint" />
            <mxPoint x="808.5" y="605" as="targetPoint" />
          </mxGeometry>
        </mxCell>
        <mxCell id="FBOwVQXou2Vzx7ArevX7-70" value="cneg" style="edgeLabel;html=1;align=center;verticalAlign=middle;resizable=0;points=[];" vertex="1" connectable="0" parent="FBOwVQXou2Vzx7ArevX7-69">
          <mxGeometry x="-0.7201" y="-1" relative="1" as="geometry">
            <mxPoint x="-13" y="-3" as="offset" />
          </mxGeometry>
        </mxCell>
        <mxCell id="FBOwVQXou2Vzx7ArevX7-71" value="" style="endArrow=classic;html=1;rounded=0;entryX=0.175;entryY=0.25;entryDx=0;entryDy=0;entryPerimeter=0;" edge="1" parent="1">
          <mxGeometry width="50" height="50" relative="1" as="geometry">
            <mxPoint x="781" y="613" as="sourcePoint" />
            <mxPoint x="803.5" y="613" as="targetPoint" />
          </mxGeometry>
        </mxCell>
        <mxCell id="FBOwVQXou2Vzx7ArevX7-72" value="nop" style="edgeLabel;html=1;align=center;verticalAlign=middle;resizable=0;points=[];" vertex="1" connectable="0" parent="FBOwVQXou2Vzx7ArevX7-71">
          <mxGeometry x="-0.7201" y="-1" relative="1" as="geometry">
            <mxPoint x="-9" y="-1" as="offset" />
          </mxGeometry>
        </mxCell>
        <mxCell id="FBOwVQXou2Vzx7ArevX7-73" value="" style="endArrow=classic;html=1;rounded=0;" edge="1" parent="1">
          <mxGeometry width="50" height="50" relative="1" as="geometry">
            <mxPoint x="655" y="537" as="sourcePoint" />
            <mxPoint x="671" y="537" as="targetPoint" />
          </mxGeometry>
        </mxCell>
        <mxCell id="FBOwVQXou2Vzx7ArevX7-75" value="csum" style="edgeLabel;html=1;align=center;verticalAlign=middle;resizable=0;points=[];" vertex="1" connectable="0" parent="FBOwVQXou2Vzx7ArevX7-73">
          <mxGeometry x="0.5805" relative="1" as="geometry">
            <mxPoint x="17" y="-1" as="offset" />
          </mxGeometry>
        </mxCell>
        <mxCell id="FBOwVQXou2Vzx7ArevX7-74" value="" style="endArrow=classic;html=1;rounded=0;" edge="1" parent="1">
          <mxGeometry width="50" height="50" relative="1" as="geometry">
            <mxPoint x="655" y="604" as="sourcePoint" />
            <mxPoint x="671" y="604" as="targetPoint" />
          </mxGeometry>
        </mxCell>
        <mxCell id="FBOwVQXou2Vzx7ArevX7-76" value="nop" style="edgeLabel;html=1;align=center;verticalAlign=middle;resizable=0;points=[];" vertex="1" connectable="0" parent="FBOwVQXou2Vzx7ArevX7-74">
          <mxGeometry x="0.6229" relative="1" as="geometry">
            <mxPoint x="12" y="-1" as="offset" />
          </mxGeometry>
        </mxCell>
        <mxCell id="FBOwVQXou2Vzx7ArevX7-77" value="" style="endArrow=classic;html=1;rounded=0;" edge="1" parent="1">
          <mxGeometry width="50" height="50" relative="1" as="geometry">
            <mxPoint x="655" y="592" as="sourcePoint" />
            <mxPoint x="671" y="592" as="targetPoint" />
          </mxGeometry>
        </mxCell>
        <mxCell id="FBOwVQXou2Vzx7ArevX7-78" value="cneg" style="edgeLabel;html=1;align=center;verticalAlign=middle;resizable=0;points=[];" vertex="1" connectable="0" parent="FBOwVQXou2Vzx7ArevX7-77">
          <mxGeometry x="0.6229" relative="1" as="geometry">
            <mxPoint x="14" y="-1" as="offset" />
          </mxGeometry>
        </mxCell>
        <mxCell id="FBOwVQXou2Vzx7ArevX7-79" value="" style="ellipse;whiteSpace=wrap;html=1;aspect=fixed;" vertex="1" parent="1">
          <mxGeometry x="676" y="558" width="1" height="1" as="geometry" />
        </mxCell>
        <mxCell id="FBOwVQXou2Vzx7ArevX7-80" value="" style="ellipse;whiteSpace=wrap;html=1;aspect=fixed;" vertex="1" parent="1">
          <mxGeometry x="676" y="565" width="1" height="1" as="geometry" />
        </mxCell>
        <mxCell id="FBOwVQXou2Vzx7ArevX7-81" value="" style="ellipse;whiteSpace=wrap;html=1;aspect=fixed;" vertex="1" parent="1">
          <mxGeometry x="676" y="572" width="1" height="1" as="geometry" />
        </mxCell>
        <mxCell id="FBOwVQXou2Vzx7ArevX7-86" value="" style="endArrow=classic;html=1;rounded=0;entryX=-0.001;entryY=0.613;entryDx=0;entryDy=0;entryPerimeter=0;" edge="1" parent="1" target="TPw53EYrXpB44-zdfeO7-59">
          <mxGeometry width="50" height="50" relative="1" as="geometry">
            <mxPoint x="460" y="498" as="sourcePoint" />
            <mxPoint x="606" y="477" as="targetPoint" />
            <Array as="points">
              <mxPoint x="569" y="498" />
              <mxPoint x="569" y="459" />
            </Array>
          </mxGeometry>
        </mxCell>
        <mxCell id="FBOwVQXou2Vzx7ArevX7-87" value="" style="ellipse;whiteSpace=wrap;html=1;aspect=fixed;fillColor=#000000;" vertex="1" parent="1">
          <mxGeometry x="459" y="497" width="2" height="2" as="geometry" />
        </mxCell>
        <mxCell id="FBOwVQXou2Vzx7ArevX7-88" value="" style="endArrow=classic;html=1;rounded=0;entryX=0;entryY=0.75;entryDx=0;entryDy=0;" edge="1" parent="1" target="TPw53EYrXpB44-zdfeO7-59">
          <mxGeometry width="50" height="50" relative="1" as="geometry">
            <mxPoint x="466" y="509" as="sourcePoint" />
            <mxPoint x="552" y="470" as="targetPoint" />
            <Array as="points">
              <mxPoint x="578" y="509" />
              <mxPoint x="578" y="470" />
            </Array>
          </mxGeometry>
        </mxCell>
        <mxCell id="FBOwVQXou2Vzx7ArevX7-89" value="" style="ellipse;whiteSpace=wrap;html=1;aspect=fixed;fillColor=#000000;" vertex="1" parent="1">
          <mxGeometry x="466" y="508" width="2" height="2" as="geometry" />
        </mxCell>
        <mxCell id="FBOwVQXou2Vzx7ArevX7-90" value="" style="endArrow=classic;html=1;rounded=0;entryX=-0.002;entryY=0.599;entryDx=0;entryDy=0;exitX=0.75;exitY=0;exitDx=0;exitDy=0;entryPerimeter=0;" edge="1" parent="1" source="TPw53EYrXpB44-zdfeO7-4" target="FBOwVQXou2Vzx7ArevX7-5">
          <mxGeometry width="50" height="50" relative="1" as="geometry">
            <mxPoint x="323" y="546" as="sourcePoint" />
            <mxPoint x="373" y="496" as="targetPoint" />
            <Array as="points">
              <mxPoint x="356" y="458" />
            </Array>
          </mxGeometry>
        </mxCell>
        <mxCell id="FBOwVQXou2Vzx7ArevX7-91" style="edgeStyle=orthogonalEdgeStyle;rounded=0;orthogonalLoop=1;jettySize=auto;html=1;exitX=0.75;exitY=0;exitDx=0;exitDy=0;entryX=0;entryY=0.75;entryDx=0;entryDy=0;" edge="1" parent="1" source="TPw53EYrXpB44-zdfeO7-3" target="FBOwVQXou2Vzx7ArevX7-5">
          <mxGeometry relative="1" as="geometry">
            <Array as="points">
              <mxPoint x="205" y="530" />
              <mxPoint x="351" y="530" />
              <mxPoint x="351" y="470" />
            </Array>
          </mxGeometry>
        </mxCell>
        <mxCell id="FBOwVQXou2Vzx7ArevX7-92" value="" style="endArrow=classic;html=1;rounded=0;entryX=0;entryY=0.75;entryDx=0;entryDy=0;exitX=0.127;exitY=0.01;exitDx=0;exitDy=0;exitPerimeter=0;" edge="1" parent="1" source="TPw53EYrXpB44-zdfeO7-4" target="FBOwVQXou2Vzx7ArevX7-4">
          <mxGeometry width="50" height="50" relative="1" as="geometry">
            <mxPoint x="256" y="547" as="sourcePoint" />
            <mxPoint x="404" y="466" as="targetPoint" />
            <Array as="points">
              <mxPoint x="269" y="519" />
              <mxPoint x="252" y="519" />
              <mxPoint x="252" y="470" />
            </Array>
          </mxGeometry>
        </mxCell>
        <mxCell id="FBOwVQXou2Vzx7ArevX7-93" value="" style="endArrow=classic;html=1;rounded=0;entryX=-0.001;entryY=0.621;entryDx=0;entryDy=0;exitX=0.65;exitY=-0.012;exitDx=0;exitDy=0;exitPerimeter=0;entryPerimeter=0;" edge="1" parent="1" source="TPw53EYrXpB44-zdfeO7-3" target="FBOwVQXou2Vzx7ArevX7-4">
          <mxGeometry width="50" height="50" relative="1" as="geometry">
            <mxPoint x="229" y="531" as="sourcePoint" />
            <mxPoint x="279" y="481" as="targetPoint" />
            <Array as="points">
              <mxPoint x="191" y="524" />
              <mxPoint x="245" y="524" />
              <mxPoint x="245" y="460" />
            </Array>
          </mxGeometry>
        </mxCell>
        <mxCell id="FBOwVQXou2Vzx7ArevX7-94" value="" style="endArrow=classic;html=1;rounded=0;entryX=0;entryY=0.616;entryDx=0;entryDy=0;exitX=0.207;exitY=-0.019;exitDx=0;exitDy=0;entryPerimeter=0;exitPerimeter=0;" edge="1" parent="1" source="TPw53EYrXpB44-zdfeO7-3" target="FBOwVQXou2Vzx7ArevX7-3">
          <mxGeometry width="50" height="50" relative="1" as="geometry">
            <mxPoint x="134" y="511" as="sourcePoint" />
            <mxPoint x="184" y="461" as="targetPoint" />
            <Array as="points">
              <mxPoint x="129" y="459" />
            </Array>
          </mxGeometry>
        </mxCell>
        <mxCell id="FBOwVQXou2Vzx7ArevX7-95" value="" style="endArrow=classic;html=1;rounded=0;entryX=0;entryY=0.75;entryDx=0;entryDy=0;exitX=0.25;exitY=0;exitDx=0;exitDy=0;" edge="1" parent="1" source="TPw53EYrXpB44-zdfeO7-4" target="FBOwVQXou2Vzx7ArevX7-3">
          <mxGeometry width="50" height="50" relative="1" as="geometry">
            <mxPoint x="187" y="518" as="sourcePoint" />
            <mxPoint x="237" y="468" as="targetPoint" />
            <Array as="points">
              <mxPoint x="286" y="513" />
              <mxPoint x="135" y="512" />
              <mxPoint x="135" y="470" />
            </Array>
          </mxGeometry>
        </mxCell>
        <mxCell id="FBOwVQXou2Vzx7ArevX7-96" value="" style="endArrow=classic;html=1;rounded=0;entryX=0;entryY=0.75;entryDx=0;entryDy=0;" edge="1" parent="1" target="FBOwVQXou2Vzx7ArevX7-2">
          <mxGeometry width="50" height="50" relative="1" as="geometry">
            <mxPoint x="135" y="512" as="sourcePoint" />
            <mxPoint x="149" y="457" as="targetPoint" />
            <Array as="points">
              <mxPoint x="28" y="511" />
              <mxPoint x="28" y="470" />
            </Array>
          </mxGeometry>
        </mxCell>
        <mxCell id="FBOwVQXou2Vzx7ArevX7-97" value="" style="ellipse;whiteSpace=wrap;html=1;aspect=fixed;fillColor=#000000;" vertex="1" parent="1">
          <mxGeometry x="134" y="511" width="2" height="2" as="geometry" />
        </mxCell>
        <mxCell id="FBOwVQXou2Vzx7ArevX7-98" value="" style="endArrow=classic;html=1;rounded=0;entryX=-0.003;entryY=0.621;entryDx=0;entryDy=0;entryPerimeter=0;" edge="1" parent="1" target="FBOwVQXou2Vzx7ArevX7-2">
          <mxGeometry width="50" height="50" relative="1" as="geometry">
            <mxPoint x="129" y="527" as="sourcePoint" />
            <mxPoint x="164" y="467" as="targetPoint" />
            <Array as="points">
              <mxPoint x="22" y="526" />
              <mxPoint x="22" y="460" />
            </Array>
          </mxGeometry>
        </mxCell>
        <mxCell id="FBOwVQXou2Vzx7ArevX7-99" value="" style="ellipse;whiteSpace=wrap;html=1;aspect=fixed;fillColor=#000000;" vertex="1" parent="1">
          <mxGeometry x="128" y="526" width="2" height="2" as="geometry" />
        </mxCell>
        <mxCell id="FBOwVQXou2Vzx7ArevX7-100" value="" style="endArrow=classic;html=1;rounded=0;entryX=0.5;entryY=1;entryDx=0;entryDy=0;exitX=0.75;exitY=0;exitDx=0;exitDy=0;" edge="1" parent="1" source="TPw53EYrXpB44-zdfeO7-50" target="TPw53EYrXpB44-zdfeO7-13">
          <mxGeometry width="50" height="50" relative="1" as="geometry">
            <mxPoint x="554" y="339" as="sourcePoint" />
            <mxPoint x="604" y="289" as="targetPoint" />
            <Array as="points">
              <mxPoint x="540" y="363" />
              <mxPoint x="560" y="363" />
            </Array>
          </mxGeometry>
        </mxCell>
        <mxCell id="FBOwVQXou2Vzx7ArevX7-101" value="" style="endArrow=classic;html=1;rounded=0;entryX=0.859;entryY=1.019;entryDx=0;entryDy=0;entryPerimeter=0;exitX=0.25;exitY=0;exitDx=0;exitDy=0;" edge="1" parent="1" source="TPw53EYrXpB44-zdfeO7-50" target="TPw53EYrXpB44-zdfeO7-12">
          <mxGeometry width="50" height="50" relative="1" as="geometry">
            <mxPoint x="440" y="237" as="sourcePoint" />
            <mxPoint x="490" y="187" as="targetPoint" />
            <Array as="points">
              <mxPoint x="500" y="363" />
              <mxPoint x="460" y="363" />
            </Array>
          </mxGeometry>
        </mxCell>
        <mxCell id="FBOwVQXou2Vzx7ArevX7-102" value="" style="endArrow=classic;html=1;rounded=0;entryX=0;entryY=0.75;entryDx=0;entryDy=0;" edge="1" parent="1" target="FBOwVQXou2Vzx7ArevX7-6">
          <mxGeometry width="50" height="50" relative="1" as="geometry">
            <mxPoint x="28" y="470" as="sourcePoint" />
            <mxPoint x="55" y="355" as="targetPoint" />
            <Array as="points">
              <mxPoint x="27" y="331" />
            </Array>
          </mxGeometry>
        </mxCell>
        <mxCell id="FBOwVQXou2Vzx7ArevX7-103" value="" style="ellipse;whiteSpace=wrap;html=1;aspect=fixed;fillColor=#000000;" vertex="1" parent="1">
          <mxGeometry x="27" y="469" width="2" height="2" as="geometry" />
        </mxCell>
        <mxCell id="FBOwVQXou2Vzx7ArevX7-104" value="" style="endArrow=classic;html=1;rounded=0;entryX=-0.002;entryY=0.564;entryDx=0;entryDy=0;entryPerimeter=0;" edge="1" parent="1" target="FBOwVQXou2Vzx7ArevX7-6">
          <mxGeometry width="50" height="50" relative="1" as="geometry">
            <mxPoint x="22" y="460" as="sourcePoint" />
            <mxPoint x="55" y="273" as="targetPoint" />
            <Array as="points">
              <mxPoint x="22" y="316" />
            </Array>
          </mxGeometry>
        </mxCell>
        <mxCell id="FBOwVQXou2Vzx7ArevX7-105" value="" style="ellipse;whiteSpace=wrap;html=1;aspect=fixed;fillColor=#000000;" vertex="1" parent="1">
          <mxGeometry x="21" y="459" width="2" height="2" as="geometry" />
        </mxCell>
        <mxCell id="FBOwVQXou2Vzx7ArevX7-106" value="" style="endArrow=classic;html=1;rounded=0;entryX=0;entryY=0.75;entryDx=0;entryDy=0;" edge="1" parent="1" target="FBOwVQXou2Vzx7ArevX7-7">
          <mxGeometry width="50" height="50" relative="1" as="geometry">
            <mxPoint x="27" y="369" as="sourcePoint" />
            <mxPoint x="254" y="314" as="targetPoint" />
            <Array as="points">
              <mxPoint x="176" y="369" />
              <mxPoint x="176" y="334" />
            </Array>
          </mxGeometry>
        </mxCell>
        <mxCell id="FBOwVQXou2Vzx7ArevX7-107" value="" style="ellipse;whiteSpace=wrap;html=1;aspect=fixed;fillColor=#000000;" vertex="1" parent="1">
          <mxGeometry x="26" y="368" width="2" height="2" as="geometry" />
        </mxCell>
        <mxCell id="FBOwVQXou2Vzx7ArevX7-108" value="" style="endArrow=classic;html=1;rounded=0;entryX=-0.003;entryY=0.61;entryDx=0;entryDy=0;entryPerimeter=0;" edge="1" parent="1" target="FBOwVQXou2Vzx7ArevX7-7">
          <mxGeometry width="50" height="50" relative="1" as="geometry">
            <mxPoint x="22" y="360" as="sourcePoint" />
            <mxPoint x="126" y="329" as="targetPoint" />
            <Array as="points">
              <mxPoint x="169" y="360" />
              <mxPoint x="169" y="323" />
            </Array>
          </mxGeometry>
        </mxCell>
        <mxCell id="FBOwVQXou2Vzx7ArevX7-109" value="" style="ellipse;whiteSpace=wrap;html=1;aspect=fixed;fillColor=#000000;" vertex="1" parent="1">
          <mxGeometry x="21" y="359" width="2" height="2" as="geometry" />
        </mxCell>
        <mxCell id="FBOwVQXou2Vzx7ArevX7-110" value="" style="endArrow=classic;html=1;rounded=0;entryX=0;entryY=0.75;entryDx=0;entryDy=0;" edge="1" parent="1" target="FBOwVQXou2Vzx7ArevX7-8">
          <mxGeometry width="50" height="50" relative="1" as="geometry">
            <mxPoint x="41" y="331" as="sourcePoint" />
            <mxPoint x="214" y="213" as="targetPoint" />
            <Array as="points">
              <mxPoint x="41" y="234" />
            </Array>
          </mxGeometry>
        </mxCell>
        <mxCell id="FBOwVQXou2Vzx7ArevX7-111" value="" style="ellipse;whiteSpace=wrap;html=1;aspect=fixed;fillColor=#000000;" vertex="1" parent="1">
          <mxGeometry x="40" y="330" width="2" height="2" as="geometry" />
        </mxCell>
        <mxCell id="FBOwVQXou2Vzx7ArevX7-112" value="" style="endArrow=classic;html=1;rounded=0;entryX=-0.002;entryY=0.617;entryDx=0;entryDy=0;entryPerimeter=0;" edge="1" parent="1" target="FBOwVQXou2Vzx7ArevX7-8">
          <mxGeometry width="50" height="50" relative="1" as="geometry">
            <mxPoint x="31" y="316" as="sourcePoint" />
            <mxPoint x="54" y="200" as="targetPoint" />
            <Array as="points">
              <mxPoint x="31" y="223" />
            </Array>
          </mxGeometry>
        </mxCell>
        <mxCell id="FBOwVQXou2Vzx7ArevX7-113" value="" style="ellipse;whiteSpace=wrap;html=1;aspect=fixed;fillColor=#000000;" vertex="1" parent="1">
          <mxGeometry x="30" y="315" width="2" height="2" as="geometry" />
        </mxCell>
        <mxCell id="FBOwVQXou2Vzx7ArevX7-117" style="edgeStyle=orthogonalEdgeStyle;rounded=0;orthogonalLoop=1;jettySize=auto;html=1;exitX=1;exitY=0.5;exitDx=0;exitDy=0;entryX=0.872;entryY=1.025;entryDx=0;entryDy=0;entryPerimeter=0;" edge="1" parent="1" source="FBOwVQXou2Vzx7ArevX7-2" target="TPw53EYrXpB44-zdfeO7-5">
          <mxGeometry relative="1" as="geometry">
            <Array as="points">
              <mxPoint x="135" y="450" />
              <mxPoint x="135" y="378" />
              <mxPoint x="312" y="378" />
            </Array>
          </mxGeometry>
        </mxCell>
        <mxCell id="FBOwVQXou2Vzx7ArevX7-118" value="" style="endArrow=classic;html=1;rounded=0;exitX=0.5;exitY=0;exitDx=0;exitDy=0;" edge="1" parent="1" source="FBOwVQXou2Vzx7ArevX7-2">
          <mxGeometry width="50" height="50" relative="1" as="geometry">
            <mxPoint x="153" y="390" as="sourcePoint" />
            <mxPoint x="80" y="391" as="targetPoint" />
          </mxGeometry>
        </mxCell>
        <mxCell id="FBOwVQXou2Vzx7ArevX7-119" value="overflow" style="edgeLabel;html=1;align=center;verticalAlign=middle;resizable=0;points=[];" vertex="1" connectable="0" parent="FBOwVQXou2Vzx7ArevX7-118">
          <mxGeometry x="0.3684" relative="1" as="geometry">
            <mxPoint y="-14" as="offset" />
          </mxGeometry>
        </mxCell>
        <mxCell id="FBOwVQXou2Vzx7ArevX7-125" value="" style="endArrow=none;html=1;rounded=0;" edge="1" parent="1">
          <mxGeometry width="50" height="50" relative="1" as="geometry">
            <mxPoint x="125" y="546" as="sourcePoint" />
            <mxPoint x="133" y="540" as="targetPoint" />
          </mxGeometry>
        </mxCell>
        <mxCell id="FBOwVQXou2Vzx7ArevX7-126" value="&lt;font style=&quot;font-size: 8px;&quot;&gt;32&lt;/font&gt;" style="edgeLabel;html=1;align=center;verticalAlign=middle;resizable=0;points=[];" vertex="1" connectable="0" parent="FBOwVQXou2Vzx7ArevX7-125">
          <mxGeometry x="0.5027" relative="1" as="geometry">
            <mxPoint x="7" as="offset" />
          </mxGeometry>
        </mxCell>
        <mxCell id="FBOwVQXou2Vzx7ArevX7-127" value="" style="endArrow=none;html=1;rounded=0;" edge="1" parent="1">
          <mxGeometry width="50" height="50" relative="1" as="geometry">
            <mxPoint x="166" y="622" as="sourcePoint" />
            <mxPoint x="174" y="616" as="targetPoint" />
          </mxGeometry>
        </mxCell>
        <mxCell id="FBOwVQXou2Vzx7ArevX7-128" value="&lt;font style=&quot;font-size: 8px;&quot;&gt;32&lt;/font&gt;" style="edgeLabel;html=1;align=center;verticalAlign=middle;resizable=0;points=[];" vertex="1" connectable="0" parent="FBOwVQXou2Vzx7ArevX7-127">
          <mxGeometry x="0.5027" relative="1" as="geometry">
            <mxPoint x="7" as="offset" />
          </mxGeometry>
        </mxCell>
        <mxCell id="FBOwVQXou2Vzx7ArevX7-129" value="" style="endArrow=none;html=1;rounded=0;" edge="1" parent="1">
          <mxGeometry width="50" height="50" relative="1" as="geometry">
            <mxPoint x="317" y="622" as="sourcePoint" />
            <mxPoint x="325" y="616" as="targetPoint" />
          </mxGeometry>
        </mxCell>
        <mxCell id="FBOwVQXou2Vzx7ArevX7-130" value="&lt;font style=&quot;font-size: 8px;&quot;&gt;32&lt;/font&gt;" style="edgeLabel;html=1;align=center;verticalAlign=middle;resizable=0;points=[];" vertex="1" connectable="0" parent="FBOwVQXou2Vzx7ArevX7-129">
          <mxGeometry x="0.5027" relative="1" as="geometry">
            <mxPoint x="7" as="offset" />
          </mxGeometry>
        </mxCell>
        <mxCell id="FBOwVQXou2Vzx7ArevX7-133" value="" style="endArrow=none;html=1;rounded=0;" edge="1" parent="1">
          <mxGeometry width="50" height="50" relative="1" as="geometry">
            <mxPoint x="845" y="518" as="sourcePoint" />
            <mxPoint x="853" y="512" as="targetPoint" />
          </mxGeometry>
        </mxCell>
        <mxCell id="FBOwVQXou2Vzx7ArevX7-134" value="&lt;font style=&quot;font-size: 8px;&quot;&gt;32&lt;/font&gt;" style="edgeLabel;html=1;align=center;verticalAlign=middle;resizable=0;points=[];" vertex="1" connectable="0" parent="FBOwVQXou2Vzx7ArevX7-133">
          <mxGeometry x="0.5027" relative="1" as="geometry">
            <mxPoint x="2" y="-8" as="offset" />
          </mxGeometry>
        </mxCell>
        <mxCell id="FBOwVQXou2Vzx7ArevX7-135" value="" style="endArrow=none;html=1;rounded=0;" edge="1" parent="1">
          <mxGeometry width="50" height="50" relative="1" as="geometry">
            <mxPoint x="187" y="545" as="sourcePoint" />
            <mxPoint x="195" y="539" as="targetPoint" />
          </mxGeometry>
        </mxCell>
        <mxCell id="FBOwVQXou2Vzx7ArevX7-136" value="&lt;font style=&quot;font-size: 8px;&quot;&gt;32&lt;/font&gt;" style="edgeLabel;html=1;align=center;verticalAlign=middle;resizable=0;points=[];" vertex="1" connectable="0" parent="FBOwVQXou2Vzx7ArevX7-135">
          <mxGeometry x="0.5027" relative="1" as="geometry">
            <mxPoint x="-12" as="offset" />
          </mxGeometry>
        </mxCell>
        <mxCell id="FBOwVQXou2Vzx7ArevX7-137" value="" style="endArrow=none;html=1;rounded=0;" edge="1" parent="1">
          <mxGeometry width="50" height="50" relative="1" as="geometry">
            <mxPoint x="201" y="547" as="sourcePoint" />
            <mxPoint x="209" y="541" as="targetPoint" />
          </mxGeometry>
        </mxCell>
        <mxCell id="FBOwVQXou2Vzx7ArevX7-138" value="&lt;font style=&quot;font-size: 8px;&quot;&gt;32&lt;/font&gt;" style="edgeLabel;html=1;align=center;verticalAlign=middle;resizable=0;points=[];" vertex="1" connectable="0" parent="FBOwVQXou2Vzx7ArevX7-137">
          <mxGeometry x="0.5027" relative="1" as="geometry">
            <mxPoint x="7" as="offset" />
          </mxGeometry>
        </mxCell>
        <mxCell id="FBOwVQXou2Vzx7ArevX7-139" value="" style="endArrow=none;html=1;rounded=0;" edge="1" parent="1">
          <mxGeometry width="50" height="50" relative="1" as="geometry">
            <mxPoint x="247" y="540" as="sourcePoint" />
            <mxPoint x="255" y="534" as="targetPoint" />
          </mxGeometry>
        </mxCell>
        <mxCell id="FBOwVQXou2Vzx7ArevX7-140" value="&lt;font style=&quot;font-size: 8px;&quot;&gt;32&lt;/font&gt;" style="edgeLabel;html=1;align=center;verticalAlign=middle;resizable=0;points=[];" vertex="1" connectable="0" parent="FBOwVQXou2Vzx7ArevX7-139">
          <mxGeometry x="0.5027" relative="1" as="geometry">
            <mxPoint x="-3" y="11" as="offset" />
          </mxGeometry>
        </mxCell>
        <mxCell id="FBOwVQXou2Vzx7ArevX7-141" value="" style="endArrow=none;html=1;rounded=0;" edge="1" parent="1">
          <mxGeometry width="50" height="50" relative="1" as="geometry">
            <mxPoint x="273" y="516" as="sourcePoint" />
            <mxPoint x="281" y="510" as="targetPoint" />
          </mxGeometry>
        </mxCell>
        <mxCell id="FBOwVQXou2Vzx7ArevX7-142" value="&lt;font style=&quot;font-size: 8px;&quot;&gt;32&lt;/font&gt;" style="edgeLabel;html=1;align=center;verticalAlign=middle;resizable=0;points=[];" vertex="1" connectable="0" parent="FBOwVQXou2Vzx7ArevX7-141">
          <mxGeometry x="0.5027" relative="1" as="geometry">
            <mxPoint x="-2" y="-9" as="offset" />
          </mxGeometry>
        </mxCell>
        <mxCell id="FBOwVQXou2Vzx7ArevX7-143" value="" style="endArrow=none;html=1;rounded=0;" edge="1" parent="1">
          <mxGeometry width="50" height="50" relative="1" as="geometry">
            <mxPoint x="265" y="551" as="sourcePoint" />
            <mxPoint x="273" y="545" as="targetPoint" />
          </mxGeometry>
        </mxCell>
        <mxCell id="FBOwVQXou2Vzx7ArevX7-144" value="&lt;font style=&quot;font-size: 8px;&quot;&gt;32&lt;/font&gt;" style="edgeLabel;html=1;align=center;verticalAlign=middle;resizable=0;points=[];" vertex="1" connectable="0" parent="FBOwVQXou2Vzx7ArevX7-143">
          <mxGeometry x="0.5027" relative="1" as="geometry">
            <mxPoint x="7" as="offset" />
          </mxGeometry>
        </mxCell>
        <mxCell id="FBOwVQXou2Vzx7ArevX7-147" value="" style="endArrow=none;html=1;rounded=0;" edge="1" parent="1">
          <mxGeometry width="50" height="50" relative="1" as="geometry">
            <mxPoint x="353" y="521" as="sourcePoint" />
            <mxPoint x="361" y="515" as="targetPoint" />
          </mxGeometry>
        </mxCell>
        <mxCell id="FBOwVQXou2Vzx7ArevX7-148" value="&lt;font style=&quot;font-size: 8px;&quot;&gt;32&lt;/font&gt;" style="edgeLabel;html=1;align=center;verticalAlign=middle;resizable=0;points=[];" vertex="1" connectable="0" parent="FBOwVQXou2Vzx7ArevX7-147">
          <mxGeometry x="0.5027" relative="1" as="geometry">
            <mxPoint x="7" as="offset" />
          </mxGeometry>
        </mxCell>
        <mxCell id="FBOwVQXou2Vzx7ArevX7-151" value="" style="endArrow=none;html=1;rounded=0;" edge="1" parent="1">
          <mxGeometry width="50" height="50" relative="1" as="geometry">
            <mxPoint x="410" y="547" as="sourcePoint" />
            <mxPoint x="418" y="541" as="targetPoint" />
          </mxGeometry>
        </mxCell>
        <mxCell id="FBOwVQXou2Vzx7ArevX7-152" value="&lt;font style=&quot;font-size: 8px;&quot;&gt;32&lt;/font&gt;" style="edgeLabel;html=1;align=center;verticalAlign=middle;resizable=0;points=[];" vertex="1" connectable="0" parent="FBOwVQXou2Vzx7ArevX7-151">
          <mxGeometry x="0.5027" relative="1" as="geometry">
            <mxPoint x="-2" y="11" as="offset" />
          </mxGeometry>
        </mxCell>
        <mxCell id="FBOwVQXou2Vzx7ArevX7-153" value="" style="endArrow=none;html=1;rounded=0;" edge="1" parent="1">
          <mxGeometry width="50" height="50" relative="1" as="geometry">
            <mxPoint x="106" y="129" as="sourcePoint" />
            <mxPoint x="114" y="123" as="targetPoint" />
          </mxGeometry>
        </mxCell>
        <mxCell id="FBOwVQXou2Vzx7ArevX7-154" value="&lt;font style=&quot;font-size: 8px;&quot;&gt;32&lt;/font&gt;" style="edgeLabel;html=1;align=center;verticalAlign=middle;resizable=0;points=[];" vertex="1" connectable="0" parent="FBOwVQXou2Vzx7ArevX7-153">
          <mxGeometry x="0.5027" relative="1" as="geometry">
            <mxPoint x="7" as="offset" />
          </mxGeometry>
        </mxCell>
        <mxCell id="FBOwVQXou2Vzx7ArevX7-155" value="" style="endArrow=none;html=1;rounded=0;" edge="1" parent="1">
          <mxGeometry width="50" height="50" relative="1" as="geometry">
            <mxPoint x="280" y="351" as="sourcePoint" />
            <mxPoint x="288" y="345" as="targetPoint" />
          </mxGeometry>
        </mxCell>
        <mxCell id="FBOwVQXou2Vzx7ArevX7-156" value="&lt;font style=&quot;font-size: 8px;&quot;&gt;32&lt;/font&gt;" style="edgeLabel;html=1;align=center;verticalAlign=middle;resizable=0;points=[];" vertex="1" connectable="0" parent="FBOwVQXou2Vzx7ArevX7-155">
          <mxGeometry x="0.5027" relative="1" as="geometry">
            <mxPoint x="7" as="offset" />
          </mxGeometry>
        </mxCell>
        <mxCell id="FBOwVQXou2Vzx7ArevX7-157" value="" style="endArrow=none;html=1;rounded=0;" edge="1" parent="1">
          <mxGeometry width="50" height="50" relative="1" as="geometry">
            <mxPoint x="308" y="337" as="sourcePoint" />
            <mxPoint x="316" y="331" as="targetPoint" />
          </mxGeometry>
        </mxCell>
        <mxCell id="FBOwVQXou2Vzx7ArevX7-158" value="&lt;font style=&quot;font-size: 8px;&quot;&gt;32&lt;/font&gt;" style="edgeLabel;html=1;align=center;verticalAlign=middle;resizable=0;points=[];" vertex="1" connectable="0" parent="FBOwVQXou2Vzx7ArevX7-157">
          <mxGeometry x="0.5027" relative="1" as="geometry">
            <mxPoint x="7" as="offset" />
          </mxGeometry>
        </mxCell>
        <mxCell id="FBOwVQXou2Vzx7ArevX7-159" value="" style="endArrow=none;html=1;rounded=0;" edge="1" parent="1">
          <mxGeometry width="50" height="50" relative="1" as="geometry">
            <mxPoint x="256" y="215" as="sourcePoint" />
            <mxPoint x="264" y="209" as="targetPoint" />
          </mxGeometry>
        </mxCell>
        <mxCell id="FBOwVQXou2Vzx7ArevX7-160" value="&lt;font style=&quot;font-size: 8px;&quot;&gt;32&lt;/font&gt;" style="edgeLabel;html=1;align=center;verticalAlign=middle;resizable=0;points=[];" vertex="1" connectable="0" parent="FBOwVQXou2Vzx7ArevX7-159">
          <mxGeometry x="0.5027" relative="1" as="geometry">
            <mxPoint x="7" as="offset" />
          </mxGeometry>
        </mxCell>
        <mxCell id="FBOwVQXou2Vzx7ArevX7-161" value="" style="endArrow=none;html=1;rounded=0;" edge="1" parent="1">
          <mxGeometry width="50" height="50" relative="1" as="geometry">
            <mxPoint x="168" y="286" as="sourcePoint" />
            <mxPoint x="176" y="280" as="targetPoint" />
          </mxGeometry>
        </mxCell>
        <mxCell id="FBOwVQXou2Vzx7ArevX7-162" value="&lt;font style=&quot;font-size: 8px;&quot;&gt;32&lt;/font&gt;" style="edgeLabel;html=1;align=center;verticalAlign=middle;resizable=0;points=[];" vertex="1" connectable="0" parent="FBOwVQXou2Vzx7ArevX7-161">
          <mxGeometry x="0.5027" relative="1" as="geometry">
            <mxPoint x="-12" as="offset" />
          </mxGeometry>
        </mxCell>
        <mxCell id="FBOwVQXou2Vzx7ArevX7-163" value="" style="endArrow=none;html=1;rounded=0;" edge="1" parent="1">
          <mxGeometry width="50" height="50" relative="1" as="geometry">
            <mxPoint x="192" y="217" as="sourcePoint" />
            <mxPoint x="200" y="211" as="targetPoint" />
          </mxGeometry>
        </mxCell>
        <mxCell id="FBOwVQXou2Vzx7ArevX7-164" value="&lt;font style=&quot;font-size: 8px;&quot;&gt;32&lt;/font&gt;" style="edgeLabel;html=1;align=center;verticalAlign=middle;resizable=0;points=[];" vertex="1" connectable="0" parent="FBOwVQXou2Vzx7ArevX7-163">
          <mxGeometry x="0.5027" relative="1" as="geometry">
            <mxPoint x="-3" y="11" as="offset" />
          </mxGeometry>
        </mxCell>
        <mxCell id="FBOwVQXou2Vzx7ArevX7-165" value="" style="endArrow=none;html=1;rounded=0;" edge="1" parent="1">
          <mxGeometry width="50" height="50" relative="1" as="geometry">
            <mxPoint x="291" y="154" as="sourcePoint" />
            <mxPoint x="299" y="148" as="targetPoint" />
          </mxGeometry>
        </mxCell>
        <mxCell id="FBOwVQXou2Vzx7ArevX7-166" value="&lt;font style=&quot;font-size: 8px;&quot;&gt;32&lt;/font&gt;" style="edgeLabel;html=1;align=center;verticalAlign=middle;resizable=0;points=[];" vertex="1" connectable="0" parent="FBOwVQXou2Vzx7ArevX7-165">
          <mxGeometry x="0.5027" relative="1" as="geometry">
            <mxPoint x="-12" as="offset" />
          </mxGeometry>
        </mxCell>
        <mxCell id="FBOwVQXou2Vzx7ArevX7-167" value="" style="endArrow=none;html=1;rounded=0;" edge="1" parent="1">
          <mxGeometry width="50" height="50" relative="1" as="geometry">
            <mxPoint x="866" y="165" as="sourcePoint" />
            <mxPoint x="874" y="159" as="targetPoint" />
          </mxGeometry>
        </mxCell>
        <mxCell id="FBOwVQXou2Vzx7ArevX7-168" value="&lt;font style=&quot;font-size: 8px;&quot;&gt;32&lt;/font&gt;" style="edgeLabel;html=1;align=center;verticalAlign=middle;resizable=0;points=[];" vertex="1" connectable="0" parent="FBOwVQXou2Vzx7ArevX7-167">
          <mxGeometry x="0.5027" relative="1" as="geometry">
            <mxPoint x="-12" as="offset" />
          </mxGeometry>
        </mxCell>
        <mxCell id="FBOwVQXou2Vzx7ArevX7-169" value="" style="endArrow=none;html=1;rounded=0;" edge="1" parent="1">
          <mxGeometry width="50" height="50" relative="1" as="geometry">
            <mxPoint x="338" y="295" as="sourcePoint" />
            <mxPoint x="346" y="289" as="targetPoint" />
          </mxGeometry>
        </mxCell>
        <mxCell id="FBOwVQXou2Vzx7ArevX7-170" value="&lt;font style=&quot;font-size: 8px;&quot;&gt;32&lt;/font&gt;" style="edgeLabel;html=1;align=center;verticalAlign=middle;resizable=0;points=[];" vertex="1" connectable="0" parent="FBOwVQXou2Vzx7ArevX7-169">
          <mxGeometry x="0.5027" relative="1" as="geometry">
            <mxPoint x="-12" as="offset" />
          </mxGeometry>
        </mxCell>
        <mxCell id="FBOwVQXou2Vzx7ArevX7-171" value="" style="endArrow=none;html=1;rounded=0;" edge="1" parent="1">
          <mxGeometry width="50" height="50" relative="1" as="geometry">
            <mxPoint x="741" y="156" as="sourcePoint" />
            <mxPoint x="749" y="150" as="targetPoint" />
          </mxGeometry>
        </mxCell>
        <mxCell id="FBOwVQXou2Vzx7ArevX7-172" value="&lt;font style=&quot;font-size: 8px;&quot;&gt;32&lt;/font&gt;" style="edgeLabel;html=1;align=center;verticalAlign=middle;resizable=0;points=[];" vertex="1" connectable="0" parent="FBOwVQXou2Vzx7ArevX7-171">
          <mxGeometry x="0.5027" relative="1" as="geometry">
            <mxPoint x="9" as="offset" />
          </mxGeometry>
        </mxCell>
        <mxCell id="FBOwVQXou2Vzx7ArevX7-173" value="" style="endArrow=none;html=1;rounded=0;" edge="1" parent="1">
          <mxGeometry width="50" height="50" relative="1" as="geometry">
            <mxPoint x="337" y="389" as="sourcePoint" />
            <mxPoint x="345" y="383" as="targetPoint" />
          </mxGeometry>
        </mxCell>
        <mxCell id="FBOwVQXou2Vzx7ArevX7-174" value="&lt;font style=&quot;font-size: 8px;&quot;&gt;32&lt;/font&gt;" style="edgeLabel;html=1;align=center;verticalAlign=middle;resizable=0;points=[];" vertex="1" connectable="0" parent="FBOwVQXou2Vzx7ArevX7-173">
          <mxGeometry x="0.5027" relative="1" as="geometry">
            <mxPoint x="-1" y="-10" as="offset" />
          </mxGeometry>
        </mxCell>
        <mxCell id="FBOwVQXou2Vzx7ArevX7-175" value="" style="endArrow=none;html=1;rounded=0;" edge="1" parent="1">
          <mxGeometry width="50" height="50" relative="1" as="geometry">
            <mxPoint x="591" y="157" as="sourcePoint" />
            <mxPoint x="599" y="151" as="targetPoint" />
          </mxGeometry>
        </mxCell>
        <mxCell id="FBOwVQXou2Vzx7ArevX7-176" value="&lt;font style=&quot;font-size: 8px;&quot;&gt;32&lt;/font&gt;" style="edgeLabel;html=1;align=center;verticalAlign=middle;resizable=0;points=[];" vertex="1" connectable="0" parent="FBOwVQXou2Vzx7ArevX7-175">
          <mxGeometry x="0.5027" relative="1" as="geometry">
            <mxPoint x="9" as="offset" />
          </mxGeometry>
        </mxCell>
        <mxCell id="FBOwVQXou2Vzx7ArevX7-177" value="" style="endArrow=none;html=1;rounded=0;" edge="1" parent="1">
          <mxGeometry width="50" height="50" relative="1" as="geometry">
            <mxPoint x="406" y="366" as="sourcePoint" />
            <mxPoint x="414" y="360" as="targetPoint" />
          </mxGeometry>
        </mxCell>
        <mxCell id="FBOwVQXou2Vzx7ArevX7-178" value="&lt;font style=&quot;font-size: 8px;&quot;&gt;32&lt;/font&gt;" style="edgeLabel;html=1;align=center;verticalAlign=middle;resizable=0;points=[];" vertex="1" connectable="0" parent="FBOwVQXou2Vzx7ArevX7-177">
          <mxGeometry x="0.5027" relative="1" as="geometry">
            <mxPoint x="-12" as="offset" />
          </mxGeometry>
        </mxCell>
        <mxCell id="FBOwVQXou2Vzx7ArevX7-179" value="" style="endArrow=none;html=1;rounded=0;" edge="1" parent="1">
          <mxGeometry width="50" height="50" relative="1" as="geometry">
            <mxPoint x="441" y="165" as="sourcePoint" />
            <mxPoint x="449" y="159" as="targetPoint" />
          </mxGeometry>
        </mxCell>
        <mxCell id="FBOwVQXou2Vzx7ArevX7-180" value="&lt;font style=&quot;font-size: 8px;&quot;&gt;32&lt;/font&gt;" style="edgeLabel;html=1;align=center;verticalAlign=middle;resizable=0;points=[];" vertex="1" connectable="0" parent="FBOwVQXou2Vzx7ArevX7-179">
          <mxGeometry x="0.5027" relative="1" as="geometry">
            <mxPoint x="-12" as="offset" />
          </mxGeometry>
        </mxCell>
        <mxCell id="FBOwVQXou2Vzx7ArevX7-181" value="" style="endArrow=none;html=1;rounded=0;" edge="1" parent="1">
          <mxGeometry width="50" height="50" relative="1" as="geometry">
            <mxPoint x="476" y="366" as="sourcePoint" />
            <mxPoint x="484" y="360" as="targetPoint" />
          </mxGeometry>
        </mxCell>
        <mxCell id="FBOwVQXou2Vzx7ArevX7-182" value="&lt;font style=&quot;font-size: 8px;&quot;&gt;32&lt;/font&gt;" style="edgeLabel;html=1;align=center;verticalAlign=middle;resizable=0;points=[];" vertex="1" connectable="0" parent="FBOwVQXou2Vzx7ArevX7-181">
          <mxGeometry x="0.5027" relative="1" as="geometry">
            <mxPoint x="-2" y="-10" as="offset" />
          </mxGeometry>
        </mxCell>
        <mxCell id="FBOwVQXou2Vzx7ArevX7-183" value="" style="endArrow=none;html=1;rounded=0;" edge="1" parent="1">
          <mxGeometry width="50" height="50" relative="1" as="geometry">
            <mxPoint x="406" y="172" as="sourcePoint" />
            <mxPoint x="414" y="166" as="targetPoint" />
          </mxGeometry>
        </mxCell>
        <mxCell id="FBOwVQXou2Vzx7ArevX7-184" value="&lt;font style=&quot;font-size: 8px;&quot;&gt;32&lt;/font&gt;" style="edgeLabel;html=1;align=center;verticalAlign=middle;resizable=0;points=[];" vertex="1" connectable="0" parent="FBOwVQXou2Vzx7ArevX7-183">
          <mxGeometry x="0.5027" relative="1" as="geometry">
            <mxPoint x="-12" as="offset" />
          </mxGeometry>
        </mxCell>
        <mxCell id="FBOwVQXou2Vzx7ArevX7-185" value="" style="endArrow=none;html=1;rounded=0;" edge="1" parent="1">
          <mxGeometry width="50" height="50" relative="1" as="geometry">
            <mxPoint x="556" y="176" as="sourcePoint" />
            <mxPoint x="564" y="170" as="targetPoint" />
          </mxGeometry>
        </mxCell>
        <mxCell id="FBOwVQXou2Vzx7ArevX7-186" value="&lt;font style=&quot;font-size: 8px;&quot;&gt;32&lt;/font&gt;" style="edgeLabel;html=1;align=center;verticalAlign=middle;resizable=0;points=[];" vertex="1" connectable="0" parent="FBOwVQXou2Vzx7ArevX7-185">
          <mxGeometry x="0.5027" relative="1" as="geometry">
            <mxPoint x="9" as="offset" />
          </mxGeometry>
        </mxCell>
        <mxCell id="FBOwVQXou2Vzx7ArevX7-187" value="" style="endArrow=none;html=1;rounded=0;" edge="1" parent="1">
          <mxGeometry width="50" height="50" relative="1" as="geometry">
            <mxPoint x="521" y="167" as="sourcePoint" />
            <mxPoint x="529" y="161" as="targetPoint" />
          </mxGeometry>
        </mxCell>
        <mxCell id="FBOwVQXou2Vzx7ArevX7-188" value="&lt;font style=&quot;font-size: 8px;&quot;&gt;32&lt;/font&gt;" style="edgeLabel;html=1;align=center;verticalAlign=middle;resizable=0;points=[];" vertex="1" connectable="0" parent="FBOwVQXou2Vzx7ArevX7-187">
          <mxGeometry x="0.5027" relative="1" as="geometry">
            <mxPoint x="9" as="offset" />
          </mxGeometry>
        </mxCell>
        <mxCell id="FBOwVQXou2Vzx7ArevX7-189" value="" style="endArrow=none;html=1;rounded=0;" edge="1" parent="1">
          <mxGeometry width="50" height="50" relative="1" as="geometry">
            <mxPoint x="667" y="373" as="sourcePoint" />
            <mxPoint x="675" y="367" as="targetPoint" />
          </mxGeometry>
        </mxCell>
        <mxCell id="FBOwVQXou2Vzx7ArevX7-190" value="&lt;font style=&quot;font-size: 8px;&quot;&gt;32&lt;/font&gt;" style="edgeLabel;html=1;align=center;verticalAlign=middle;resizable=0;points=[];" vertex="1" connectable="0" parent="FBOwVQXou2Vzx7ArevX7-189">
          <mxGeometry x="0.5027" relative="1" as="geometry">
            <mxPoint x="-2" y="-10" as="offset" />
          </mxGeometry>
        </mxCell>
        <mxCell id="FBOwVQXou2Vzx7ArevX7-191" value="" style="endArrow=none;html=1;rounded=0;" edge="1" parent="1">
          <mxGeometry width="50" height="50" relative="1" as="geometry">
            <mxPoint x="706" y="213" as="sourcePoint" />
            <mxPoint x="714" y="207" as="targetPoint" />
          </mxGeometry>
        </mxCell>
        <mxCell id="FBOwVQXou2Vzx7ArevX7-192" value="&lt;font style=&quot;font-size: 8px;&quot;&gt;32&lt;/font&gt;" style="edgeLabel;html=1;align=center;verticalAlign=middle;resizable=0;points=[];" vertex="1" connectable="0" parent="FBOwVQXou2Vzx7ArevX7-191">
          <mxGeometry x="0.5027" relative="1" as="geometry">
            <mxPoint x="9" as="offset" />
          </mxGeometry>
        </mxCell>
        <mxCell id="FBOwVQXou2Vzx7ArevX7-193" value="" style="endArrow=none;html=1;rounded=0;" edge="1" parent="1">
          <mxGeometry width="50" height="50" relative="1" as="geometry">
            <mxPoint x="724" y="402" as="sourcePoint" />
            <mxPoint x="732" y="396" as="targetPoint" />
          </mxGeometry>
        </mxCell>
        <mxCell id="FBOwVQXou2Vzx7ArevX7-194" value="&lt;font style=&quot;font-size: 8px;&quot;&gt;32&lt;/font&gt;" style="edgeLabel;html=1;align=center;verticalAlign=middle;resizable=0;points=[];" vertex="1" connectable="0" parent="FBOwVQXou2Vzx7ArevX7-193">
          <mxGeometry x="0.5027" relative="1" as="geometry">
            <mxPoint x="-2" y="11" as="offset" />
          </mxGeometry>
        </mxCell>
        <mxCell id="FBOwVQXou2Vzx7ArevX7-195" value="" style="endArrow=none;html=1;rounded=0;" edge="1" parent="1">
          <mxGeometry width="50" height="50" relative="1" as="geometry">
            <mxPoint x="826" y="222" as="sourcePoint" />
            <mxPoint x="834" y="216" as="targetPoint" />
          </mxGeometry>
        </mxCell>
        <mxCell id="FBOwVQXou2Vzx7ArevX7-196" value="&lt;font style=&quot;font-size: 8px;&quot;&gt;32&lt;/font&gt;" style="edgeLabel;html=1;align=center;verticalAlign=middle;resizable=0;points=[];" vertex="1" connectable="0" parent="FBOwVQXou2Vzx7ArevX7-195">
          <mxGeometry x="0.5027" relative="1" as="geometry">
            <mxPoint x="-12" as="offset" />
          </mxGeometry>
        </mxCell>
      </root>
    </mxGraphModel>
  </diagram>
</mxfile>
